<?xml version="1.0" encoding="UTF-8" standalone="no"?>
<svg
   xmlns:dc="http://purl.org/dc/elements/1.1/"
   xmlns:cc="http://creativecommons.org/ns#"
   xmlns:rdf="http://www.w3.org/1999/02/22-rdf-syntax-ns#"
   xmlns:svg="http://www.w3.org/2000/svg"
   xmlns="http://www.w3.org/2000/svg"
   version="1.1"
   id="svg6977"
   viewBox="0 0 512.00001 512.00001"
   height="512"
   width="512">
  <defs
     id="defs6979" />
  <metadata
     id="metadata6982">
    <rdf:RDF>
      <cc:Work
         rdf:about="">
        <dc:format>image/svg+xml</dc:format>
        <dc:type
           rdf:resource="http://purl.org/dc/dcmitype/StillImage" />
        <dc:title></dc:title>
      </cc:Work>
    </rdf:RDF>
  </metadata>
  <g
     id="layer10">
    <g
       transform="matrix(0.96240544,0,0,0.9624063,-186.53169,123.10572)"
       style="display:inline"
       id="layer1-3">
      <rect
         y="-120.41457"
         x="201.31836"
         height="517"
         width="517"
         id="rect4190"
         style="display:inline;fill:none;fill-opacity:1;stroke:#5ca200;stroke-width:15.00000095;stroke-linecap:square;stroke-linejoin:miter;stroke-miterlimit:4;stroke-dasharray:none;stroke-dashoffset:0;stroke-opacity:1" />
    </g>
  </g>
  <g
     transform="translate(0,-540.36216)"
     id="layer1">
    <path
       transform="translate(0,540.36216)"
       id="path7591"
       d="M 22.728516 290.07617 L 22.728516 324.25586 L 124.13086 324.25586 L 157.30664 324.25586 C 157.39051 321.7239 157.58027 319.25596 157.97266 316.9043 C 158.41883 314.23024 159.03977 311.65488 159.7832 309.13281 C 160.52664 306.61075 161.3917 304.14194 162.32422 301.68555 C 164.18925 296.77275 166.32457 291.90638 168.29688 286.73828 C 169.28303 284.15423 170.22937 281.49417 171.08008 278.7168 C 171.53892 277.21877 171.87822 275.58141 172.27344 274.00781 C 158.20627 270.03847 155.97217 268.38818 155.28516 264.95312 C 153.89914 258.02302 154.37104 254.93903 157.5332 250.2793 C 159.21508 247.80096 161.98085 240.89706 163.67773 234.9375 C 165.91765 227.07086 167.43104 223.92681 169.20508 223.46289 C 172.94369 222.48521 175.81185 215.57653 176.50586 205.87695 C 177.27024 195.1935 176.224 190.33389 173.16016 190.33789 C 171.13683 190.34051 170.9331 188.98722 171.30273 178 C 171.80991 162.92346 170.00055 155.56906 164.48828 150.32031 C 162.1946 148.13628 158.98898 144.46639 157.36523 142.16406 C 155.73351 139.85043 151.04963 136.32726 146.89453 134.28711 C 140.03389 130.91855 138.11361 130.59656 124.93359 130.60156 C 112.65139 130.60631 109.51055 131.05802 103.92773 133.625 C 96.836802 136.88543 90.140625 142.53163 90.140625 145.25 C 90.140625 146.17955 88.423047 147.82771 86.322266 148.91406 C 80.296186 152.03028 77.6522 160.65576 77.75 176.87695 C 77.81078 186.95987 77.410087 190.33398 76.154297 190.33398 C 69.007837 190.33398 72.051724 221.82286 79.302734 222.9043 C 81.447804 223.22423 82.724992 225.64362 85.539062 234.7207 C 87.485324 240.99852 90.285569 248.30305 91.761719 250.95312 C 93.803039 254.61785 94.279226 257.23777 93.753906 261.89844 C 93.374036 265.26865 92.499727 268.59005 91.810547 269.2793 C 91.121367 269.96845 77.023395 274.06338 60.480469 278.37891 C 43.887771 282.70741 28.836661 287.41587 22.728516 290.07617 z "
       style="fill:#5ca200;fill-opacity:1" />
    <path
       id="path7585"
       d="m 127.37986,945.64263 c 0,-4.79398 9.93665,-21.55929 15.12224,-25.51451 3.0492,-2.32574 10.13955,-6.31231 15.75631,-8.85906 8.13497,-3.68856 10.21442,-5.35066 10.22271,-8.17075 0.006,-1.94708 1.42342,-5.6737 3.15042,-8.28139 4.19239,-6.33039 3.97132,-13.18358 -0.79021,-24.49646 -2.17308,-5.16303 -3.95105,-11.05382 -3.95105,-13.09053 0,-2.03684 3.08516,-9.74953 6.85588,-17.13931 6.64588,-13.02448 6.88584,-14.01373 7.83406,-32.29884 1.47245,-28.39406 7.36888,-47.70852 20.34226,-66.63339 5.83555,-8.51259 16.13642,-14.65593 24.57439,-14.65593 3.5117,0 9.09432,-1.13206 12.40581,-2.51569 16.32078,-6.81926 46.92889,7.47361 62.4643,29.16855 9.97089,13.9242 12.73167,25.42619 12.19039,50.78757 l -0.45538,21.33563 5.38122,10.27271 c 5.95126,11.36098 6.41638,15.8175 4.20612,40.30069 l -1.28408,14.22375 4.9242,6.14378 c 2.70832,3.37918 4.9242,7.72925 4.9242,9.66696 0,2.71794 1.7385,4.24551 7.60828,6.68492 13.54741,5.62995 23.00986,16.66454 26.4493,30.84341 l 1.05427,4.34615 -119.49282,0 c -98.83331,0 -119.49282,-0.36628 -119.49282,-2.11826 z"
       style="fill:#5ca200;fill-opacity:1" />
    <path
       transform="translate(0,540.36216)"
       id="path7591-0"
       d="M 326.60742 282.46289 C 327.07315 283.03015 327.60411 283.41694 328.02344 284.10547 C 328.97133 285.66191 329.80226 287.51142 330.52539 289.57227 C 331.24852 291.63311 331.86341 293.90513 332.37891 296.31055 C 332.8944 298.71596 333.31174 301.25361 333.63672 303.84375 C 333.9617 306.43389 334.1941 309.07638 334.3457 311.69141 C 334.4973 314.30643 334.56715 316.89493 334.5625 319.375 C 334.55559 323.05829 334.23821 326.04463 333.93359 328.99219 L 387.86914 328.99219 L 491.1875 328.99219 L 491.1875 295.25391 C 483.77032 291.85924 474.13761 288.70805 459.4082 284.94531 C 422.92237 275.62469 419.98679 274.51598 419.02148 269.68945 C 417.63546 262.75935 418.10737 259.67535 421.26953 255.01562 C 422.95141 252.53728 425.71718 245.63534 427.41406 239.67578 C 429.65398 231.80914 431.16932 228.66509 432.94336 228.20117 C 436.68197 227.22349 439.54818 220.31481 440.24219 210.61523 C 441.00657 199.93178 439.96032 195.07022 436.89648 195.07422 C 434.87315 195.07684 434.66943 193.72355 435.03906 182.73633 C 435.54624 167.65979 433.73688 160.30734 428.22461 155.05859 C 425.93093 152.87456 422.72531 149.20272 421.10156 146.90039 C 419.46984 144.58676 414.78596 141.06359 410.63086 139.02344 C 403.77022 135.65488 401.84994 135.33289 388.66992 135.33789 C 376.38772 135.34264 373.24688 135.7963 367.66406 138.36328 C 360.57313 141.62371 353.87695 147.26796 353.87695 149.98633 C 353.87695 150.91588 352.15937 152.56599 350.05859 153.65234 C 344.03251 156.76856 341.38853 165.39209 341.48633 181.61328 C 341.54711 191.6962 341.14641 195.07031 339.89062 195.07031 C 332.74417 195.07031 335.78805 226.55918 343.03906 227.64062 C 345.18413 227.96055 346.46132 230.37995 349.27539 239.45703 C 351.22165 245.73485 354.0219 253.03938 355.49805 255.68945 C 357.53937 259.35418 358.01555 261.97605 357.49023 266.63672 C 357.11036 270.00693 356.23606 273.32833 355.54688 274.01758 C 354.89582 274.66861 341.94812 278.41837 326.60742 282.46289 z "
       style="fill:#5ca200;fill-opacity:1" />
  </g>
</svg>
