<?xml version="1.0" encoding="UTF-8" standalone="no"?>
<svg
   xmlns:dc="http://purl.org/dc/elements/1.1/"
   xmlns:cc="http://creativecommons.org/ns#"
   xmlns:rdf="http://www.w3.org/1999/02/22-rdf-syntax-ns#"
   xmlns:svg="http://www.w3.org/2000/svg"
   xmlns="http://www.w3.org/2000/svg"
   version="1.1"
   id="svg6361"
   viewBox="0 0 511.99999 511.99999"
   height="512"
   width="512">
  <defs
     id="defs6363" />
  <metadata
     id="metadata6366">
    <rdf:RDF>
      <cc:Work
         rdf:about="">
        <dc:format>image/svg+xml</dc:format>
        <dc:type
           rdf:resource="http://purl.org/dc/dcmitype/StillImage" />
        <dc:title></dc:title>
      </cc:Work>
    </rdf:RDF>
  </metadata>
  <g
     id="layer9">
    <g
       transform="matrix(0.96240544,0,0,0.9624063,-186.53169,123.10572)"
       style="display:inline"
       id="layer1-3">
      <rect
         y="-120.41457"
         x="201.31836"
         height="517"
         width="517"
         id="rect4190"
         style="display:inline;fill:none;fill-opacity:1;stroke:#5ca200;stroke-width:15.00000095;stroke-linecap:square;stroke-linejoin:miter;stroke-miterlimit:4;stroke-dasharray:none;stroke-dashoffset:0;stroke-opacity:1" />
    </g>
  </g>
  <g
     transform="translate(0,-540.3622)"
     id="layer1">
    <g
       id="text6970"
       style="font-style:normal;font-variant:normal;font-weight:500;font-stretch:normal;font-size:540.14135742px;line-height:125%;font-family:'URW Palladio L';-inkscape-font-specification:'URW Palladio L, Medium';text-align:start;letter-spacing:0px;word-spacing:0px;writing-mode:lr-tb;text-anchor:start;fill:#000000;fill-opacity:1;stroke:none;stroke-width:1px;stroke-linecap:butt;stroke-linejoin:miter;stroke-opacity:1">
      <path
         style="fill:#5ca200;fill-opacity:1"
         id="path6975"
         d="m 281.15496,711.6058 -5.39035,-2.39572 c -30.5453,12.57748 -61.68954,20.96247 -93.4327,24.55604 l 0,16.76996 22.16032,0 c 23.9571,0 26.35282,4.1925 26.35282,43.72172 l 0,134.75871 c 0,37.73243 -1.79679,41.92492 -22.16032,43.12279 l -27.55068,1.79677 0,17.96777 149.7319,0 0,-17.96777 -27.55067,-1.79677 c -20.36354,-1.19787 -22.16032,-5.39036 -22.16032,-43.12279 z M 253.60429,600.82056 c -17.96782,0 -33.53995,15.57213 -33.53995,33.53995 0,17.3689 15.57213,32.94103 32.94103,32.94103 17.3689,0 33.53994,-15.57213 33.53994,-32.94103 0,-16.76997 -16.17104,-33.53995 -32.94102,-33.53995 z" />
    </g>
  </g>
</svg>
