<?xml version="1.0" encoding="UTF-8" standalone="no"?>
<svg
   xmlns:dc="http://purl.org/dc/elements/1.1/"
   xmlns:cc="http://creativecommons.org/ns#"
   xmlns:rdf="http://www.w3.org/1999/02/22-rdf-syntax-ns#"
   xmlns:svg="http://www.w3.org/2000/svg"
   xmlns="http://www.w3.org/2000/svg"
   version="1.1"
   id="svg4493"
   viewBox="0 0 532.00001 532.00002"
   height="150.14223mm"
   width="150.14223mm">
  <defs
     id="defs4495" />
  <metadata
     id="metadata4498">
    <rdf:RDF>
      <cc:Work
         rdf:about="">
        <dc:format>image/svg+xml</dc:format>
        <dc:type
           rdf:resource="http://purl.org/dc/dcmitype/StillImage" />
        <dc:title></dc:title>
      </cc:Work>
    </rdf:RDF>
  </metadata>
  <g
     transform="translate(-193.81836,127.91457)"
     style="display:inline"
     id="layer1">
    <rect
       y="-120.41457"
       x="201.31836"
       height="517"
       width="517"
       id="rect4190"
       style="display:inline;fill:none;fill-opacity:1;stroke:#5ca200;stroke-width:15.00000095;stroke-linecap:square;stroke-linejoin:miter;stroke-miterlimit:4;stroke-dasharray:none;stroke-dashoffset:0;stroke-opacity:1" />
  </g>
  <g
     transform="translate(-193.81836,127.91457)"
     id="layer2">
    <g
       style="display:inline;fill:#5ca200;fill-opacity:1"
       transform="matrix(1.124283,0,0,1.124283,228.47678,-146.02105)"
       id="g4191">
      <path
         d="m 105.14446,199.84396 c 0,5.9325 -1.03512,11.4425 -3.1045,16.5325 -2.072753,5.09375 -5.203623,9.5125 -9.399373,13.26125 -4.19688,3.75 -9.45813,6.6875 -15.77738,8.81125 -6.32325,2.12375 -13.73825,3.18875 -22.24025,3.18875 -8.28275,0 -16.11326,-1.035 -23.49851,-3.105 -7.3853,-2.06875 -13.65385,-5.00625 -18.79887,-8.81125 l 0,-27.8625 c 2.90917,2.01375 6.12695,3.9725 9.65087,5.87375 3.52538,1.905 7.13375,3.55375 10.82613,4.95125 3.69287,1.40125 7.32812,2.51875 10.91113,3.3575 3.57862,0.84 6.88087,1.25875 9.90187,1.25875 7.2735,0 12.58788,-1.565 15.94538,-4.7 3.35637,-3.13 5.03662,-6.93625 5.03662,-11.4125 0,-2.35 -0.337,-4.44875 -1.00887,-6.295 -0.67138,-1.84625 -1.92963,-3.58 -3.77538,-5.2025 -1.84662,-1.62125 -4.42275,-3.215 -7.72062,-4.78375 -3.30225,-1.56625 -7.52688,-3.24375 -12.67388,-5.03625 -7.04837,-2.5725 -12.95263,-5.28625 -17.707,-8.14 -4.75738,-2.85375 -8.56008,-5.985 -11.41359,-9.40001 -2.85304,-3.41125 -4.89649,-7.105 -6.1255,-11.0775 -1.23291,-3.97 -1.84716,-8.30875 -1.84716,-13.0075 0,-6.0425 1.31347,-11.55375 3.94385,-16.53375 2.62841,-4.9775 6.21093,-9.2575 10.74215,-12.84 4.53275,-3.58 9.84525,-6.35 15.94638,-8.30875 6.09762,-1.956255 12.61475,-2.937505 19.55412,-2.937505 6.26463,0 12.42,0.6175 18.462,1.8475 6.04238,1.232505 11.91788,3.356255 17.62501,6.377505 l 0,25.1775 c -5.484,-2.46 -11.275,-4.50375 -17.37213,-6.12625 -6.10113,-1.62125 -12.11425,-2.435 -18.0435,-2.435 -6.93938,0 -12.16888,1.45625 -15.69425,4.365 -3.5245,2.91125 -5.28663,6.60375 -5.28663,11.0775 0,1.90375 0.36075,3.6925 1.09075,5.37125 0.72663,1.67875 1.98488,3.3025 3.77738,4.8675 1.78812,1.56875 4.2505,3.1625 7.38525,4.7825 3.13087,1.62375 7.1045,3.27375 11.916,4.9525 6.71437,2.35 12.50487,4.84125 17.37213,7.46876 4.86812,2.63 8.8965,5.56875 12.08487,8.8125 3.19,3.24625 5.539633,6.965 7.049883,11.16125 1.51125,4.19625 2.26562,9.03875 2.26562,14.51875"
         style="fill:#5ca200;fill-opacity:1;fill-rule:nonzero;stroke:none"
         id="path16" />
      <path
         d="m 218.94434,235.59521 c -3.805,2.015 -8.3925,3.525 -13.76375,4.5325 -5.37125,1.0075 -10.9675,1.51 -16.785,1.51 -13.54,0 -23.22,-3.6925 -29.0375,-11.0775 -5.81875,-7.385 -8.7275,-18.68625 -8.7275,-33.905 l 0,-73.85251 -25.848,0 0,-21.98875 26.8555,0 c 1.90125,-5.928755 3.83125,-12.110005 5.79,-18.546255 1.95625,-6.43375 3.7775,-12.505 5.455,-18.21125 l 19.97375,0 0,36.757505 38.4375,0 0,21.98875 -38.4375,0 0,78.72001 c 0,4.8125 1.23,8.7025 3.69375,11.66625 2.46,2.965 6.0425,4.4475 10.7425,4.4475 4.1375,0 7.9975,-0.195 11.58,-0.5875 3.58125,-0.39125 6.9375,-0.865 10.07125,-1.4275 l 0,19.97375"
         style="fill:#5ca200;fill-opacity:1;fill-rule:nonzero;stroke:none"
         id="path18" />
      <path
         d="m 252.34685,100.81395 32.39375,0 0,85.26751 c 0,9.625 1.985,17.065 5.9575,22.32375 3.97125,5.26125 9.9875,7.88875 18.04501,7.88875 3.57875,0 7.075,-0.44625 10.48875,-1.34375 3.4125,-0.89375 6.63125,-2.0975 9.65375,-3.60875 3.02,-1.51 5.84375,-3.18875 8.47375,-5.035 2.62875,-1.84625 5.0075,-3.77625 7.13375,-5.79125 l 0,-99.70126 32.39501,0 0,137.80251 -31.38626,0 -1.00875,-13.7625 c -2.34875,2.12625 -4.98,4.19625 -7.88875,6.21 -2.91,2.01375 -6.125,3.805 -9.65,5.37125 -3.525,1.56875 -7.33125,2.825 -11.415,3.77625 -4.085,0.95 -8.42,1.42625 -13.00751,1.42625 -17.12,0 -29.76625,-4.5575 -37.93375,-13.67875 -8.16875,-9.11875 -12.25125,-22.4075 -12.25125,-39.86375 l 0,-87.28126"
         style="fill:#5ca200;fill-opacity:1;fill-rule:nonzero;stroke:none"
         id="path20" />
      <path
         d="m 209.80508,293.72639 c 3.98648,0 7.83013,0.44032 11.52701,1.31965 3.69424,0.88065 7.41732,2.0234 11.17317,3.43084 l 0,27.45068 c -3.9891,-0.93568 -8.2128,-1.60927 -12.66975,-2.02337 -4.45957,-0.40888 -8.68326,-0.61463 -12.66974,-0.61463 -4.45958,0 -8.24293,0.96714 -11.35008,2.90403 -3.10978,1.93427 -5.60363,4.51724 -7.47762,7.74233 -1.87923,3.2276 -3.22902,6.98082 -4.04807,11.26084 -0.82167,4.28423 -1.23187,8.77106 -1.23187,13.46272 l 0,82.8813 -33.78553,0 0,-95.90474 c 0,-4.33796 -0.1756,-8.91287 -0.52811,-13.72376 -0.35122,-4.80921 -0.79154,-9.44176 -1.31966,-13.90266 -0.52813,-4.45695 -1.11653,-8.53386 -1.75997,-12.22942 -0.64607,-3.69555 -1.262,-6.59958 -1.84779,-8.71076 l 28.50692,0 c 0.58578,1.05755 1.17156,2.49383 1.75997,4.31148 0.58579,1.82158 1.14405,3.8135 1.67088,5.98235 0.52942,2.17409 1.02609,4.48708 1.49656,6.9521 0.46653,2.4624 0.81906,4.86845 1.05625,7.2142 1.75866,-2.93023 3.63397,-6.00987 5.63113,-9.2389 1.99325,-3.22509 4.28004,-6.2156 6.86169,-8.97417 2.57903,-2.75464 5.4254,-5.04143 8.53516,-6.86299 3.10717,-1.81764 6.59828,-2.72712 10.46945,-2.72712"
         style="fill:#5ca200;fill-opacity:1;fill-rule:nonzero;stroke:none"
         id="path22" />
      <path
         d="m 344.49311,375.0441 c -2.57625,-0.22263 -5.43,-0.39013 -8.56,-0.5025 -3.135,-0.11038 -6.43625,-0.16888 -9.90375,-0.16888 -7.4975,0 -13.6525,0.67138 -18.4625,2.01513 -4.81251,1.34225 -8.61876,3.13475 -11.41376,5.37112 -2.79875,2.23875 -4.7575,4.75725 -5.875,7.55363 -1.12,2.79737 -1.6775,5.70512 -1.6775,8.72762 0,5.705 1.70375,10.351 5.11875,13.93113 3.4125,3.5815 8.195,5.37012 14.35126,5.37012 6.265,0 12.6425,-1.399 19.135,-4.19637 6.48625,-2.79488 12.2525,-6.54488 17.2875,-11.24513 l 0,-26.85587 z m 31.05251,66.29975 c -4.1425,0 -7.78,-0.41988 -10.91125,-1.25725 -3.135,-0.84038 -5.82,-2.01513 -8.05625,-3.52638 -2.24,-1.51125 -4.11125,-3.32762 -5.6225,-5.45362 -1.51125,-2.1265 -2.71501,-4.53375 -3.60876,-7.21875 -5.37125,4.92625 -11.69375,9.06487 -18.9675,12.42087 -7.275,3.35788 -15.945,5.03513 -26.01626,5.03513 -7.83375,0 -14.68625,-1.06488 -20.56125,-3.1885 -5.87375,-2.124 -10.7425,-5.09025 -14.6025,-8.89638 -3.86,-3.80137 -6.77125,-8.25 -8.7275,-13.34237 -1.95875,-5.09025 -2.9375,-10.66013 -2.9375,-16.70263 0,-14.99262 5.7325,-26.49025 17.20375,-34.49262 11.46875,-7.99763 28.45,-12 50.94126,-12 3.3575,0 6.685,0.084 9.98875,0.25137 3.2975,0.1685 6.90625,0.42 10.825,0.755 0,-10.18025 -2.12625,-17.98487 -6.37875,-23.41375 -4.25375,-5.42625 -11.24625,-8.14126 -20.98,-8.14126 -6.94,0 -14.01501,0.86875 -21.23376,2.60126 -7.21625,1.7375 -14.35,4.0575 -21.4,6.96625 l 0,-25.00876 c 6.1525,-2.90875 13.17625,-5.2025 21.065,-6.8825 7.88875,-1.6775 15.52626,-2.5175 22.91126,-2.5175 9.51,0 17.90125,0.9225 25.17625,2.77 7.27251,1.84625 13.37001,4.925 18.29626,9.23125 4.92125,4.30875 8.645,9.98625 11.16125,17.03751 2.5175,7.04738 3.7775,15.72125 3.7775,26.01513 l 0,53.20849 c 0,4.02888 1.0325,6.99275 3.105,8.89413 2.06875,1.90475 4.22125,2.8535 6.46125,2.8535 2.2375,0 4.30626,-0.0825 6.21001,-0.2515 1.90125,-0.1685 4.085,-0.52975 6.54625,-1.09087 l 0,19.30225 c -2.79875,2.01375 -6.23875,3.525 -10.32251,4.53375 -4.085,1.00487 -8.53375,1.50875 -13.3425,1.50875"
         style="fill:#5ca200;fill-opacity:1;fill-rule:nonzero;stroke:none"
         id="path24" />
    </g>
  </g>
</svg>
