<?xml version="1.0" encoding="UTF-8" standalone="no"?>
<svg
   xmlns:dc="http://purl.org/dc/elements/1.1/"
   xmlns:cc="http://creativecommons.org/ns#"
   xmlns:rdf="http://www.w3.org/1999/02/22-rdf-syntax-ns#"
   xmlns:svg="http://www.w3.org/2000/svg"
   xmlns="http://www.w3.org/2000/svg"
   version="1.1"
   id="svg7652"
   viewBox="0 0 512.00001 512.00001"
   height="512"
   width="512">
  <defs
     id="defs7654" />
  <metadata
     id="metadata7657">
    <rdf:RDF>
      <cc:Work
         rdf:about="">
        <dc:format>image/svg+xml</dc:format>
        <dc:type
           rdf:resource="http://purl.org/dc/dcmitype/StillImage" />
        <dc:title></dc:title>
      </cc:Work>
    </rdf:RDF>
  </metadata>
  <g
     id="layer11">
    <g
       transform="matrix(0.96240544,0,0,0.9624063,-186.53169,123.10572)"
       style="display:inline"
       id="layer1-3">
      <rect
         y="-120.41457"
         x="201.31836"
         height="517"
         width="517"
         id="rect4190"
         style="display:inline;fill:none;fill-opacity:1;stroke:#5ca200;stroke-width:15.00000095;stroke-linecap:square;stroke-linejoin:miter;stroke-miterlimit:4;stroke-dasharray:none;stroke-dashoffset:0;stroke-opacity:1" />
    </g>
  </g>
  <g
     transform="translate(0,-540.36216)"
     id="layer1">
    <path
       d="m 352.07427,581.55921 c 2.94293,-1.47445 5.87391,-3.14589 9.13918,-3.76671 1.41475,-0.26265 3.28915,-0.26265 4.11294,1.16404 0.90734,1.94603 0.14922,4.26216 -0.98496,5.95748 -2.04155,2.87726 -5.3307,4.44722 -8.44076,5.88585 -5.856,2.73997 -12.03435,4.7636 -17.75305,7.79606 -15.05488,8.6676 -32.61691,11.51501 -49.71333,12.70293 -27.97269,1.62367 -56.0409,-1.26552 -83.54201,-6.29177 -9.41378,-1.98782 -19.06036,-3.90997 -28.71291,-2.72205 -6.42906,0.74021 -12.99542,3.12797 -17.371,8.08259 -3.55181,4.01145 -6.10672,9.55704 -4.75764,14.98324 1.32522,5.29488 5.5635,9.18096 9.93312,12.12389 4.42334,3.1041 8.87055,6.3813 14.09977,7.99305 22.79721,7.67668 48.39407,6.93646 70.55256,-2.54894 5.50978,-2.26838 10.39873,-5.7784 15.89656,-8.07066 1.69532,-0.67454 3.48615,-1.51623 5.35457,-1.28939 1.70128,0.45965 0.86556,2.54894 0.66858,3.7667 -1.19986,5.69483 -5.59932,9.76 -9.24067,13.99232 -3.19363,3.61747 -5.15758,8.13632 -6.24401,12.8044 -1.52816,5.30085 -1.21179,10.85838 -1.63562,16.30249 -0.65558,6.10274 -1.07224,12.20546 -3.03223,18.30821 -1.83857,10.04652 -1.19388,20.34377 -0.35219,30.45597 1.23567,13.15063 3.34884,26.20575 5.97539,39.14148 4.5487,20.79148 5.2113,42.29931 3.34884,63.4549 -0.86547,13.67433 -2.91482,27.48718 -5.03586,36.37541 5.24493,3.78633 11.13824,8.85788 15.6077,12.15573 9.5272,-6.75141 19.84832,-12.47608 30.96935,-16.13535 15.98014,-5.22323 33.78094,-7.21702 49.92225,-1.56398 6.39922,2.25047 12.73277,5.65304 16.6308,11.39562 3.22946,4.53079 5.13967,10.23158 4.30992,15.81896 -0.65663,4.51288 -3.15186,8.66759 -6.66187,11.55679 -4.30395,3.57568 -9.67046,5.57545 -15.02503,6.97229 -12.04629,3.11603 -24.82681,2.87129 -36.91489,0.0956 -6.32161,-1.4267 -12.49996,-3.42048 -18.57682,-5.64707 -6.80514,-2.42955 -22.78765,-10.35726 -22.78765,-10.35726 -5.30472,2.35843 -8.36272,6.03471 -11.10435,10.27783 0,0 5.66261,6.02497 7.63252,8.32319 13.1566,15.79509 20.76761,35.86427 22.37935,56.28566 0.34623,5.9336 0.26266,11.97465 -1.22373,17.76499 -2.61461,9.87938 -9.09143,18.6366 -17.62769,24.2239 -7.47968,4.9607 -17.07254,7.2469 -25.82371,4.6681 -10.08832,-2.9609 -17.93214,-11.4851 -21.32276,-21.28099 -3.79655,-10.81062 -3.34288,-22.59425 -1.43267,-33.72722 1.44461,-7.96321 3.58762,-15.81895 6.54845,-23.35237 4.63228,-10.1898 9.3899,-20.32587 14.63105,-30.21719 -2.8295,-1.77889 -5.53365,-3.74284 -8.44075,-5.37845 -5.43815,2.74594 -10.56588,6.11865 -16.27861,8.28555 -15.06681,6.1485 -31.47077,9.43169 -47.76729,8.35719 -9.64658,-0.83572 -19.80654,-3.77865 -26.48034,-11.2046 -5.34263,-5.59932 -6.46488,-14.08783 -4.70391,-21.38246 1.40282,-5.98733 5.53365,-10.9897 10.48827,-14.46391 6.76933,-4.73374 14.89967,-7.33044 23.08375,-8.09453 11.4195,-1.00882 22.80318,1.43863 33.66155,4.80539 8.84668,2.68027 16.16205,6.28579 24.18494,10.89419 1.30133,0.75215 5.77293,3.76131 5.77293,3.76131 0,0 4.29159,-9.53995 4.20835,-10.55433 -2.26837,-4.32783 -8.11568,-9.10951 -11.10635,-12.91801 -9.61674,-12.95363 -17.72918,-27.2086 -22.44502,-42.69925 -7.05585,-22.45096 -8.02886,-46.98527 -1.5222,-69.681 2.89516,-9.86148 6.35743,-19.63342 11.35383,-28.64724 5.14565,-9.13321 13.43716,-16.29055 17.30535,-26.16993 1.82664,-4.77554 2.95486,-9.77791 4.66809,-14.58926 2.91904,-7.84979 5.04415,-16.00402 8.6258,-23.59712 -5.3665,1.42072 -10.44051,3.73686 -15.75329,5.3307 -9.25857,2.67429 -19.00663,1.60577 -28.43832,0.7402 -12.51787,-0.97301 -24.95813,-3.3966 -36.80146,-7.60504 -7.92739,-2.88323 -15.52049,-7.81397 -19.80056,-15.26978 -4.20248,-7.1812 -4.44125,-16.12339 -2.0296,-23.94333 2.11914,-6.29774 7.06181,-11.38965 12.89393,-14.43405 8.59597,-4.46513 18.11719,-6.89469 27.68617,-8.15424 15.10263,-1.952 30.45001,-1.0924 45.43325,1.40282 21.7466,3.44435 43.64839,8.23183 65.79494,6.30968 9.44959,-0.76409 18.97081,-1.43863 28.2055,-3.68313 9.20484,-2.20869 17.47846,-6.96036 25.8058,-11.27624 M 223.18879,736.79968 c -7.36627,22.74946 -8.08857,47.58821 -1.99379,70.71373 4.82328,18.52309 13.68788,35.85829 25.05962,51.19969 1.16403,-19.4424 1.77292,-39.02806 -0.6626,-58.39283 -1.48639,-11.37174 -5.52769,-22.20624 -7.32448,-33.51829 -1.79083,-10.6793 -2.69818,-21.47797 -4.38752,-32.17517 -0.92527,-5.62916 -1.33715,-11.34189 -2.50119,-16.93524 -3.56374,5.96345 -5.98733,12.54175 -8.19004,19.10811 m 98.17902,132.83148 c -9.38988,0.57307 -18.49923,3.54584 -26.8385,7.81994 -4.40543,2.11915 -5.56131,2.84049 -9.62052,5.53271 -0.71191,0.41707 -4.56089,3.59214 -4.47034,3.63742 0,0 30.99626,13.08387 47.46589,14.7971 8.58402,0.75811 17.61575,0.41189 25.5312,-3.34289 4.07711,-1.99378 7.93933,-4.91282 10.09428,-8.9959 1.42073,-2.91906 -0.0537,-6.23805 -1.97587,-8.53628 -3.68313,-4.32185 -8.72729,-7.47968 -14.21319,-8.95413 -8.44075,-2.34001 -17.29937,-2.20271 -25.97295,-1.95797 m -163.96799,7.37224 c -3.86819,2.24451 -7.34836,6.26192 -6.94243,11.00164 0.47158,5.15758 4.44721,9.08546 8.393,12.01047 9.06157,6.41115 20.79745,7.60503 31.56031,6.38131 8.05872,-0.68052 15.96223,-2.84144 23.45982,-5.82615 5.37248,-2.02961 9.15514,-3.727 15.47871,-7.42597 -2.22062,-1.68934 -4.44126,-3.38465 -6.73947,-4.96655 -12.18957,-8.38106 -25.8655,-16.15325 -41.03976,-16.54723 -8.30943,-0.23281 -16.87555,1.2297 -24.17018,5.37248 m 93.03339,-0.3701 c -1.77678,3.999 -3.55092,7.73952 -5.16814,11.20025 3.25914,3.08301 4.56744,3.63625 6.96887,6.08897 1.9091,-2.28287 6.34707,-6.66408 9.54117,-8.95592 -3.4711,-2.17615 -8.17378,-4.98313 -11.3419,-8.3333 m -12.44624,67.07239 c -3.95773,12.20149 -6.70962,25.20288 -4.8591,38.05505 1.3073,9.37795 6.10074,18.49326 13.98038,23.94336 5.50381,2.7459 12.67904,2.155 17.39489,-1.9281 5.03819,-4.2861 7.56922,-10.70919 9.23468,-16.94126 1.06853,-4.60839 2.26241,-9.31826 1.82068,-14.08783 1.15291,-22.89689 -8.84867,-45.10362 -22.78296,-61.16299 -3.16704,3.02633 -12.52236,21.84514 -14.78857,32.12177 z"
       style="fill:#5ca200;fill-opacity:1;fill-rule:nonzero;stroke:none"
       id="path8250" />
  </g>
</svg>
