<?xml version="1.0" encoding="UTF-8" standalone="no"?>
<svg
   xmlns:dc="http://purl.org/dc/elements/1.1/"
   xmlns:cc="http://creativecommons.org/ns#"
   xmlns:rdf="http://www.w3.org/1999/02/22-rdf-syntax-ns#"
   xmlns:svg="http://www.w3.org/2000/svg"
   xmlns="http://www.w3.org/2000/svg"
   version="1.1"
   id="svg6977"
   viewBox="0 0 512.00001 512.00001"
   height="512"
   width="512">
  <defs
     id="defs6979" />
  <metadata
     id="metadata6982">
    <rdf:RDF>
      <cc:Work
         rdf:about="">
        <dc:format>image/svg+xml</dc:format>
        <dc:type
           rdf:resource="http://purl.org/dc/dcmitype/StillImage" />
        <dc:title></dc:title>
      </cc:Work>
    </rdf:RDF>
  </metadata>
  <g
     id="layer10">
    <g
       transform="matrix(0.96240544,0,0,0.9624063,-186.53169,123.10572)"
       style="display:inline"
       id="layer1-3">
      <rect
         y="-120.41457"
         x="201.31836"
         height="517"
         width="517"
         id="rect4190"
         style="display:inline;fill:none;fill-opacity:1;stroke:#000000;stroke-width:15.00000095;stroke-linecap:square;stroke-linejoin:miter;stroke-miterlimit:4;stroke-dasharray:none;stroke-dashoffset:0;stroke-opacity:1" />
    </g>
  </g>
  <g
     transform="translate(0,-540.36216)"
     id="layer1">
    <g
       transform="matrix(1.1563916,0,0,1.1563916,2.008532,-183.37249)"
       id="g4147">
      <path
         style="display:inline;opacity:1;fill:#000000"
         mask="none"
         d="m 228.61679,665.26197 c -0.886,0.0267 -1.51975,0.2263 -1.76216,0.61854 -0.18582,0.30066 -1.57189,0.69965 -3.08013,0.88634 -0.2599,0.0322 -0.46463,0.0607 -0.71831,0.0924 l 0,362.35055 196.53657,0 c 0.87153,0 0.94229,-9.2649 0.13023,-16.94 -0.28696,-2.7122 -0.8026,-8.4559 -1.14575,-12.76367 -0.34315,-4.30764 -0.99923,-10.05138 -1.45868,-12.76361 -0.45945,-2.71223 -0.9817,-6.36697 -1.16042,-8.12196 -0.17862,-1.75494 -0.69345,-4.8885 -1.1436,-6.96256 -0.45015,-2.07405 -1.09381,-5.07626 -1.43034,-6.67167 -1.5024,-7.12348 -2.51614,-10.02724 -5.65615,-16.20295 -2.28155,-4.48728 -2.59475,-4.98077 -5.91661,-9.30653 -4.14913,-5.40312 -7.26758,-8.64217 -10.79145,-11.20939 -1.59541,-1.16236 -3.03193,-2.26918 -3.19146,-2.45952 -0.44752,-0.53376 -9.22163,-4.92508 -12.47273,-6.24214 -4.46255,-1.8079 -8.96338,-3.38541 -12.47385,-4.37184 -3.65393,-1.02676 -9.71227,-2.75008 -15.8091,-4.49784 -12.77771,-3.66288 -29.10386,-9.49898 -37.56531,-13.42841 -1.4359,-0.66682 -2.95802,-1.36713 -3.38152,-1.55634 -1.72331,-0.76994 -0.7404,-1.52879 2.50674,-1.9344 2.09583,-0.26179 3.66245,-0.20528 4.01266,0.14492 0.31598,0.31598 2.15465,0.5715 4.08513,0.56709 6.23294,-0.0141 8.07169,-1.18424 3.65456,-2.32505 -5.20371,-1.34396 -8.75511,-3.22344 -12.40136,-6.56456 -5.29923,-4.85578 -5.29729,-4.84868 -3.12632,-10.4491 2.6989,-6.96234 8.70853,-20.5003 10.72739,-24.16525 6.83815,-12.41367 10.21005,-21.20164 11.57488,-30.16798 0.67751,-4.45109 0.76985,-6.63489 0.3434,-8.10619 -0.45503,-1.56993 -0.40005,-2.19699 0.24889,-2.84594 0.72301,-0.72301 1.2824,-0.66724 4.26155,0.41902 6.51689,2.37617 6.98768,1.28399 1.43242,-3.32166 -1.99012,-1.64994 -4.64166,-4.36401 -5.89245,-6.03107 -2.36982,-3.15853 -6.11281,-10.23042 -8.05369,-15.21474 -0.62126,-1.59543 -2.88426,-7.18817 -5.02922,-12.42865 -3.82188,-9.33742 -8.421,-22.42709 -9.90091,-28.18212 -0.41028,-1.59544 -1.02334,-3.68445 -1.36312,-4.64171 -0.33977,-0.95726 -1.17299,-3.69778 -1.85143,-6.09094 -1.86063,-6.56332 -5.76508,-19.13298 -6.75779,-21.75618 -6.66918,-17.62317 -13.92161,-27.88782 -24.85731,-35.18039 -7.3962,-4.93223 -16.64337,-8.04214 -23.91321,-8.04214 -4.38695,0 -5.33028,-0.20835 -9.16895,-2.02996 -2.92008,-1.38569 -6.09187,-2.16123 -8.04109,-2.10242 z m 74.21908,227.49427 c 0.51629,0 0.77689,0.26165 0.57969,0.58074 -0.19721,0.31909 -0.45781,0.57969 -0.57969,0.57969 -0.12189,0 -0.38353,-0.2606 -0.58074,-0.57969 -0.19721,-0.31909 0.0644,-0.58074 0.58074,-0.58074 z"
         id="path4160" />
      <path
         style="display:inline;fill:#000000"
         mask="none"
         d="m 200.8498,665.49748 c -3.15124,-0.003 -5.88185,0.24959 -7.18205,0.75927 l -1.92389,0.75401 1.75587,1.38201 c 0.96559,0.75953 1.75587,1.60055 1.75587,1.86928 0,0.26874 -2.19274,0.55964 -4.87275,0.64691 -11.48912,0.37412 -24.30615,5.37997 -33.38777,13.03984 -2.74511,2.31532 -5.09919,4.54184 -5.23085,4.94731 -0.13556,0.41746 0.64053,0.76218 1.78948,0.79498 3.72309,0.10586 3.65276,0.99421 -0.17328,2.17803 -5.61795,1.73822 -10.82654,5.85259 -15.65055,12.36354 -1.72455,2.32758 -1.78077,2.54168 -0.48517,1.84829 0.80591,-0.43133 2.29594,-0.78342 3.31115,-0.78342 1.71388,0 1.58484,0.19307 -1.80417,2.70206 -4.61264,3.41488 -9.3613,9.10358 -12.3541,14.79887 -2.08402,3.96589 -6.41753,15.63706 -6.41753,17.28355 0,0.35476 1.46842,-0.82467 3.2639,-2.62015 2.87209,-2.87209 3.60549,-3.2639 6.09828,-3.2639 l 2.83334,0 -2.04677,2.48258 c -1.12566,1.3656 -1.93964,2.59071 -1.80837,2.72202 0.13127,0.13124 1.37529,-0.53308 2.76402,-1.47548 2.54747,-1.72876 4.03115,-2.05262 5.97857,-1.30535 0.83225,0.31938 1.06381,1.45153 1.06381,5.213 0,5.47167 1.53896,19.52103 3.06647,27.98469 0.56708,3.14205 1.47006,11.73304 2.0058,19.09192 1.47341,20.23804 3.36254,30.37755 6.49315,34.84434 1.34915,1.92496 3.09949,2.37189 4.35817,1.11317 1.2522,-1.25221 3.60777,6.10924 8.57141,26.78436 1.40242,5.84149 3.75173,10.5139 7.82476,15.56548 l 3.47813,4.31406 -0.47047,7.4383 c -0.25887,4.09095 -0.56426,7.53102 -0.67841,7.64517 -0.68864,0.68861 -38.67237,13.94125 -43.6888,15.24309 -10.11912,2.62609 -22.7854,5.0584 -29.841374,5.73072 -4.60662,0.43891 -8.20325,1.24203 -11.62003,2.59285 -2.72156,1.07595 -7.669329,2.77768 -10.996238,3.78266 -13.907592,4.20102 -23.371276,11.28038 -31.922792,23.87968 -8.820608,12.99573 -15.360418,33.4818 -16.886588,52.89553 -0.763,9.70575 -2.34859,16.78535 -5.8704,26.21725 -1.13323,3.035 -2.26275,7.0424 -2.50988,8.9054 l -0.44842,3.3464 205.536452,0 0,-363.5359 c -2.85,-0.006 -5.61695,0.22721 -6.98357,0.70361 -1.55873,0.54338 -3.37666,0.51565 -6.98882,-0.10606 -2.98246,-0.51333 -6.55434,-0.77128 -9.70559,-0.77397 z"
         id="path4158" />
    </g>
    <text
       id="text4151"
       y="900.73718"
       x="180.6875"
       style="font-style:normal;font-variant:normal;font-weight:normal;font-stretch:normal;font-size:312.5px;line-height:125%;font-family:FreeSerif;-inkscape-font-specification:'FreeSerif, Normal';text-align:justify;letter-spacing:0px;word-spacing:0px;writing-mode:lr-tb;text-anchor:start;fill:#ffffff;fill-opacity:1;stroke:none;stroke-width:1px;stroke-linecap:butt;stroke-linejoin:miter;stroke-opacity:1;"
       xml:space="preserve"><tspan
         y="900.73718"
         x="180.6875"
         id="tspan4153">?</tspan></text>
  </g>
</svg>
