<?xml version="1.0" encoding="UTF-8" standalone="no"?>
<svg
   xmlns:osb="http://www.openswatchbook.org/uri/2009/osb"
   xmlns:dc="http://purl.org/dc/elements/1.1/"
   xmlns:cc="http://creativecommons.org/ns#"
   xmlns:rdf="http://www.w3.org/1999/02/22-rdf-syntax-ns#"
   xmlns:svg="http://www.w3.org/2000/svg"
   xmlns="http://www.w3.org/2000/svg"
   enable-background="new"
   version="1.1"
   id="svg2"
   viewBox="0 0 512.00001 512.00001"
   height="512"
   width="512">
  <defs
     id="defs4">
    <linearGradient
       osb:paint="solid"
       id="linearGradient4157">
      <stop
         id="stop4159"
         offset="0"
         style="stop-color:#000000;stop-opacity:1;" />
    </linearGradient>
  </defs>
  <metadata
     id="metadata7">
    <rdf:RDF>
      <cc:Work
         rdf:about="">
        <dc:format>image/svg+xml</dc:format>
        <dc:type
           rdf:resource="http://purl.org/dc/dcmitype/StillImage" />
        <dc:title></dc:title>
      </cc:Work>
    </rdf:RDF>
  </metadata>
  <g
     transform="translate(0,-540.36216)"
     id="layer1">
    <g
       transform="matrix(0.96240544,0,0,0.9624063,-186.53184,663.4678)"
       style="display:inline"
       id="layer1-3">
      <rect
         y="-120.41457"
         x="201.31836"
         height="517"
         width="517"
         id="rect4190"
         style="display:inline;fill:none;fill-opacity:1;stroke:#000000;stroke-width:15.00000095;stroke-linecap:square;stroke-linejoin:miter;stroke-miterlimit:4;stroke-dasharray:none;stroke-dashoffset:0;stroke-opacity:1" />
    </g>
  </g>
  <g
     style=""
     id="layer4">
    <g
       id="text4219"
       style="font-style:normal;font-variant:normal;font-weight:500;font-stretch:normal;font-size:250px;line-height:125%;font-family:'Century Schoolbook L';-inkscape-font-specification:'Century Schoolbook L, Medium';text-align:justify;letter-spacing:0px;word-spacing:0px;writing-mode:lr-tb;text-anchor:start;fill:#000000;fill-opacity:1;stroke:none;stroke-width:1px;stroke-linecap:butt;stroke-linejoin:miter;stroke-opacity:1" />
    <g
       id="text4226"
       style="font-style:normal;font-variant:normal;font-weight:normal;font-stretch:normal;font-size:494.09295654px;line-height:125%;font-family:FreeSerif;-inkscape-font-specification:'FreeSerif, Normal';text-align:justify;letter-spacing:0px;word-spacing:0px;writing-mode:lr-tb;text-anchor:start;fill:#000000;fill-opacity:0.99607843;stroke:none;stroke-width:1px;stroke-linecap:butt;stroke-linejoin:miter;stroke-opacity:1">
      <path
         id="path4142"
         style=""
         d="m 486.78815,112.14462 0,9.38777 q -19.76372,3.95274 -27.17512,9.88186 -6.9173,5.92911 -13.8346,25.19874 -41.00971,110.18273 -55.33841,151.19244 -14.3287,41.00972 -45.45655,136.86375 l -7.4114,0 -79.05487,-209.00132 -76.09032,209.00132 -7.41139,0 L 79.65555,179.34127 Q 67.303226,144.75476 57.421367,134.37881 48.033601,123.50876 28.763975,121.53239 l 0,-9.38777 121.052775,0 0,9.38777 q -18.77553,0.98819 -25.69283,4.44684 -6.42321,2.96455 -6.42321,11.36413 0,8.89368 5.43502,22.72828 l 71.14939,185.77895 52.86794,-139.33421 -16.30507,-40.51562 q -11.85823,-29.64558 -20.25781,-36.56288 -8.39958,-7.4114 -29.64557,-7.90549 l 0,-9.38777 131.92282,0 0,9.38777 q -38.04516,0.49409 -38.04516,17.29325 0,5.43503 13.34051,40.02153 l 65.22027,168.4857 61.76162,-167.49751 q 7.90548,-22.23418 7.90548,-37.05697 0,-9.88186 -7.90548,-14.3287 -7.4114,-4.94093 -26.18693,-6.9173 l 0,-9.38777 97.83041,0 z" />
    </g>
  </g>
</svg>
