<?xml version="1.0" standalone="no"?>
<!DOCTYPE svg PUBLIC "-//W3C//DTD SVG 20010904//EN"
 "http://www.w3.org/TR/2001/REC-SVG-20010904/DTD/svg10.dtd">
<svg version="1.0" xmlns="http://www.w3.org/2000/svg"
 width="700.000000pt" height="700.000000pt" viewBox="0 0 700.000000 700.000000"
 preserveAspectRatio="xMidYMid meet">
<metadata>
Created by potrace 1.11, written by Peter Selinger 2001-2013
</metadata>
<g transform="translate(0.000000,700.000000) scale(0.100000,-0.100000)"
fill="#000000" stroke="none">
<path d="M0 3500 l0 -3500 3500 0 3500 0 0 3500 0 3500 -3500 0 -3500 0 0
-3500z m3160 2520 l0 -270 285 0 285 0 0 -165 0 -165 -285 0 -286 0 3 -622 c3
-622 3 -623 25 -665 31 -58 87 -101 142 -109 37 -6 217 4 346 19 19 2 20 -4
20 -143 l0 -145 -35 -17 c-152 -73 -470 -94 -646 -43 -121 35 -230 143 -276
272 -47 136 -50 172 -55 831 l-5 622 -189 0 -189 0 0 165 0 165 200 0 199 0
45 143 c25 78 62 199 83 270 l37 127 148 0 148 0 0 -270z m-1565 -245 c106
-17 163 -33 251 -71 l64 -28 0 -189 c0 -176 -1 -187 -17 -178 -44 23 -207 74
-293 92 -127 27 -277 28 -356 3 -147 -46 -210 -210 -123 -320 53 -66 133 -111
345 -192 346 -132 484 -254 529 -467 45 -213 -9 -418 -145 -556 -141 -142
-313 -201 -590 -201 -170 0 -283 18 -418 67 -80 29 -191 90 -198 109 -2 6 -3
100 -2 208 l3 196 96 -57 c281 -166 595 -213 729 -109 92 72 116 209 53 305
-37 58 -114 104 -281 169 -396 154 -541 276 -588 497 -44 205 8 383 155 527
104 103 220 162 381 195 88 18 295 18 405 0z m3075 -702 c1 -719 2 -743 49
-848 29 -65 91 -128 155 -157 44 -20 67 -23 161 -23 93 1 122 5 190 29 92 31
188 85 269 151 l56 46 0 740 0 739 240 0 240 0 0 -1020 0 -1020 -229 0 -229 0
-6 23 c-3 12 -6 43 -6 68 0 26 -3 60 -6 77 l-6 30 -72 -55 c-184 -143 -406
-205 -651 -183 -124 11 -199 31 -293 76 -131 63 -238 192 -292 352 -46 140
-50 211 -50 955 l0 697 240 0 240 0 0 -677z m-919 -2207 c52 -13 106 -29 122
-35 l27 -11 0 -201 0 -202 -42 8 c-124 20 -174 25 -290 26 -115 1 -132 -1
-180 -24 -68 -31 -115 -78 -155 -153 -64 -121 -66 -136 -70 -886 l-5 -678
-249 0 -249 0 0 794 c0 839 -5 954 -50 1202 -11 60 -20 115 -20 122 0 9 48 12
209 12 l209 0 15 -37 c17 -44 42 -148 60 -248 l12 -70 39 65 c109 180 215 287
324 326 60 21 187 17 293 -10z m1729 -56 c123 -25 182 -48 272 -107 130 -85
209 -209 255 -402 13 -54 17 -164 22 -596 6 -509 7 -531 26 -565 40 -68 99
-83 253 -64 l52 6 0 -144 0 -145 -60 -27 c-74 -33 -189 -56 -285 -56 -194 0
-329 69 -396 202 -12 23 -23 44 -24 46 -2 2 -40 -24 -85 -58 -100 -73 -218
-132 -326 -161 -115 -32 -384 -32 -497 -1 -286 79 -447 292 -447 591 1 192 48
319 165 437 185 187 484 266 953 250 l192 -6 0 48 c0 73 -36 200 -74 262 -70
113 -185 157 -385 147 -169 -9 -329 -44 -504 -111 l-67 -25 2 186 3 186 65 27
c117 48 261 81 460 104 86 10 329 -3 430 -24z"/>
<path d="M5120 1690 c-182 -22 -305 -89 -360 -197 -22 -42 -25 -61 -25 -148 0
-92 2 -104 28 -148 33 -55 93 -102 150 -118 61 -16 183 -12 269 10 117 30 257
104 341 180 l27 25 0 196 0 197 -67 6 c-87 9 -279 7 -363 -3z"/>
</g>
</svg>
