<?xml version="1.0" encoding="UTF-8" standalone="no"?>
<svg
   xmlns:dc="http://purl.org/dc/elements/1.1/"
   xmlns:cc="http://creativecommons.org/ns#"
   xmlns:rdf="http://www.w3.org/1999/02/22-rdf-syntax-ns#"
   xmlns:svg="http://www.w3.org/2000/svg"
   xmlns="http://www.w3.org/2000/svg"
   version="1.1"
   id="svg4493"
   viewBox="0 0 1250.3382 788.36463"
   height="222.49402mm"
   width="352.87323mm">
  <defs
     id="defs4495" />
  <metadata
     id="metadata4498">
    <rdf:RDF>
      <cc:Work
         rdf:about="">
        <dc:format>image/svg+xml</dc:format>
        <dc:type
           rdf:resource="http://purl.org/dc/dcmitype/StillImage" />
        <dc:title></dc:title>
      </cc:Work>
    </rdf:RDF>
  </metadata>
  <g
     transform="translate(-193.81836,127.91457)"
     style="display:inline"
     id="layer1">
    <rect
       y="-120.41457"
       x="201.31836"
       height="517"
       width="517"
       id="rect4190"
       style="display:inline;fill:none;fill-opacity:1;stroke:#5ca200;stroke-width:15.00000095;stroke-linecap:square;stroke-linejoin:miter;stroke-miterlimit:4;stroke-dasharray:none;stroke-dashoffset:0;stroke-opacity:1" />
    <rect
       y="396.58414"
       x="718.32007"
       height="256.36594"
       width="718.33655"
       id="rect4192"
       style="display:inline;fill:none;fill-opacity:1;stroke:#5ca200;stroke-width:15;stroke-linecap:square;stroke-linejoin:miter;stroke-miterlimit:4;stroke-dasharray:none;stroke-dashoffset:0;stroke-opacity:1" />
    <g
       id="g4166"
       transform="translate(-3.5887596,-1.2999249)">
      <path
         style="display:inline;fill:#5ca200;fill-opacity:1;stroke:none;stroke-width:15;stroke-linecap:square;stroke-linejoin:round;stroke-miterlimit:4;stroke-dasharray:none;stroke-dashoffset:0;stroke-opacity:1"
         d="m 762.94935,197.85287 147.78532,76.72108 -147.78532,76.72109 z"
         id="rect4194" />
      <path
         style="display:inline;fill:#5ca200;fill-opacity:1;stroke:none;stroke-width:15;stroke-linecap:square;stroke-linejoin:round;stroke-miterlimit:4;stroke-dasharray:none;stroke-dashoffset:0;stroke-opacity:1"
         d="m 932.3014,197.85287 147.7853,76.72108 -147.7853,76.72109 z"
         id="rect4194-2" />
    </g>
  </g>
  <g
     transform="translate(-193.81836,127.91457)"
     id="layer2">
    <g
       style="display:inline;fill:#5ca200;fill-opacity:1"
       transform="matrix(1.124283,0,0,1.124283,228.47678,-146.02105)"
       id="g4191">
      <path
         d="m 105.14446,199.84396 c 0,5.9325 -1.03512,11.4425 -3.1045,16.5325 -2.072753,5.09375 -5.203623,9.5125 -9.399373,13.26125 -4.19688,3.75 -9.45813,6.6875 -15.77738,8.81125 -6.32325,2.12375 -13.73825,3.18875 -22.24025,3.18875 -8.28275,0 -16.11326,-1.035 -23.49851,-3.105 -7.3853,-2.06875 -13.65385,-5.00625 -18.79887,-8.81125 l 0,-27.8625 c 2.90917,2.01375 6.12695,3.9725 9.65087,5.87375 3.52538,1.905 7.13375,3.55375 10.82613,4.95125 3.69287,1.40125 7.32812,2.51875 10.91113,3.3575 3.57862,0.84 6.88087,1.25875 9.90187,1.25875 7.2735,0 12.58788,-1.565 15.94538,-4.7 3.35637,-3.13 5.03662,-6.93625 5.03662,-11.4125 0,-2.35 -0.337,-4.44875 -1.00887,-6.295 -0.67138,-1.84625 -1.92963,-3.58 -3.77538,-5.2025 -1.84662,-1.62125 -4.42275,-3.215 -7.72062,-4.78375 -3.30225,-1.56625 -7.52688,-3.24375 -12.67388,-5.03625 -7.04837,-2.5725 -12.95263,-5.28625 -17.707,-8.14 -4.75738,-2.85375 -8.56008,-5.985 -11.41359,-9.40001 -2.85304,-3.41125 -4.89649,-7.105 -6.1255,-11.0775 -1.23291,-3.97 -1.84716,-8.30875 -1.84716,-13.0075 0,-6.0425 1.31347,-11.55375 3.94385,-16.53375 2.62841,-4.9775 6.21093,-9.2575 10.74215,-12.84 4.53275,-3.58 9.84525,-6.35 15.94638,-8.30875 6.09762,-1.956255 12.61475,-2.937505 19.55412,-2.937505 6.26463,0 12.42,0.6175 18.462,1.8475 6.04238,1.232505 11.91788,3.356255 17.62501,6.377505 l 0,25.1775 c -5.484,-2.46 -11.275,-4.50375 -17.37213,-6.12625 -6.10113,-1.62125 -12.11425,-2.435 -18.0435,-2.435 -6.93938,0 -12.16888,1.45625 -15.69425,4.365 -3.5245,2.91125 -5.28663,6.60375 -5.28663,11.0775 0,1.90375 0.36075,3.6925 1.09075,5.37125 0.72663,1.67875 1.98488,3.3025 3.77738,4.8675 1.78812,1.56875 4.2505,3.1625 7.38525,4.7825 3.13087,1.62375 7.1045,3.27375 11.916,4.9525 6.71437,2.35 12.50487,4.84125 17.37213,7.46876 4.86812,2.63 8.8965,5.56875 12.08487,8.8125 3.19,3.24625 5.539633,6.965 7.049883,11.16125 1.51125,4.19625 2.26562,9.03875 2.26562,14.51875"
         style="fill:#5ca200;fill-opacity:1;fill-rule:nonzero;stroke:none"
         id="path16" />
      <path
         d="m 218.94434,235.59521 c -3.805,2.015 -8.3925,3.525 -13.76375,4.5325 -5.37125,1.0075 -10.9675,1.51 -16.785,1.51 -13.54,0 -23.22,-3.6925 -29.0375,-11.0775 -5.81875,-7.385 -8.7275,-18.68625 -8.7275,-33.905 l 0,-73.85251 -25.848,0 0,-21.98875 26.8555,0 c 1.90125,-5.928755 3.83125,-12.110005 5.79,-18.546255 1.95625,-6.43375 3.7775,-12.505 5.455,-18.21125 l 19.97375,0 0,36.757505 38.4375,0 0,21.98875 -38.4375,0 0,78.72001 c 0,4.8125 1.23,8.7025 3.69375,11.66625 2.46,2.965 6.0425,4.4475 10.7425,4.4475 4.1375,0 7.9975,-0.195 11.58,-0.5875 3.58125,-0.39125 6.9375,-0.865 10.07125,-1.4275 l 0,19.97375"
         style="fill:#5ca200;fill-opacity:1;fill-rule:nonzero;stroke:none"
         id="path18" />
      <path
         d="m 252.34685,100.81395 32.39375,0 0,85.26751 c 0,9.625 1.985,17.065 5.9575,22.32375 3.97125,5.26125 9.9875,7.88875 18.04501,7.88875 3.57875,0 7.075,-0.44625 10.48875,-1.34375 3.4125,-0.89375 6.63125,-2.0975 9.65375,-3.60875 3.02,-1.51 5.84375,-3.18875 8.47375,-5.035 2.62875,-1.84625 5.0075,-3.77625 7.13375,-5.79125 l 0,-99.70126 32.39501,0 0,137.80251 -31.38626,0 -1.00875,-13.7625 c -2.34875,2.12625 -4.98,4.19625 -7.88875,6.21 -2.91,2.01375 -6.125,3.805 -9.65,5.37125 -3.525,1.56875 -7.33125,2.825 -11.415,3.77625 -4.085,0.95 -8.42,1.42625 -13.00751,1.42625 -17.12,0 -29.76625,-4.5575 -37.93375,-13.67875 -8.16875,-9.11875 -12.25125,-22.4075 -12.25125,-39.86375 l 0,-87.28126"
         style="fill:#5ca200;fill-opacity:1;fill-rule:nonzero;stroke:none"
         id="path20" />
      <path
         d="m 209.80508,293.72639 c 3.98648,0 7.83013,0.44032 11.52701,1.31965 3.69424,0.88065 7.41732,2.0234 11.17317,3.43084 l 0,27.45068 c -3.9891,-0.93568 -8.2128,-1.60927 -12.66975,-2.02337 -4.45957,-0.40888 -8.68326,-0.61463 -12.66974,-0.61463 -4.45958,0 -8.24293,0.96714 -11.35008,2.90403 -3.10978,1.93427 -5.60363,4.51724 -7.47762,7.74233 -1.87923,3.2276 -3.22902,6.98082 -4.04807,11.26084 -0.82167,4.28423 -1.23187,8.77106 -1.23187,13.46272 l 0,82.8813 -33.78553,0 0,-95.90474 c 0,-4.33796 -0.1756,-8.91287 -0.52811,-13.72376 -0.35122,-4.80921 -0.79154,-9.44176 -1.31966,-13.90266 -0.52813,-4.45695 -1.11653,-8.53386 -1.75997,-12.22942 -0.64607,-3.69555 -1.262,-6.59958 -1.84779,-8.71076 l 28.50692,0 c 0.58578,1.05755 1.17156,2.49383 1.75997,4.31148 0.58579,1.82158 1.14405,3.8135 1.67088,5.98235 0.52942,2.17409 1.02609,4.48708 1.49656,6.9521 0.46653,2.4624 0.81906,4.86845 1.05625,7.2142 1.75866,-2.93023 3.63397,-6.00987 5.63113,-9.2389 1.99325,-3.22509 4.28004,-6.2156 6.86169,-8.97417 2.57903,-2.75464 5.4254,-5.04143 8.53516,-6.86299 3.10717,-1.81764 6.59828,-2.72712 10.46945,-2.72712"
         style="fill:#5ca200;fill-opacity:1;fill-rule:nonzero;stroke:none"
         id="path22" />
      <path
         d="m 344.49311,375.0441 c -2.57625,-0.22263 -5.43,-0.39013 -8.56,-0.5025 -3.135,-0.11038 -6.43625,-0.16888 -9.90375,-0.16888 -7.4975,0 -13.6525,0.67138 -18.4625,2.01513 -4.81251,1.34225 -8.61876,3.13475 -11.41376,5.37112 -2.79875,2.23875 -4.7575,4.75725 -5.875,7.55363 -1.12,2.79737 -1.6775,5.70512 -1.6775,8.72762 0,5.705 1.70375,10.351 5.11875,13.93113 3.4125,3.5815 8.195,5.37012 14.35126,5.37012 6.265,0 12.6425,-1.399 19.135,-4.19637 6.48625,-2.79488 12.2525,-6.54488 17.2875,-11.24513 l 0,-26.85587 z m 31.05251,66.29975 c -4.1425,0 -7.78,-0.41988 -10.91125,-1.25725 -3.135,-0.84038 -5.82,-2.01513 -8.05625,-3.52638 -2.24,-1.51125 -4.11125,-3.32762 -5.6225,-5.45362 -1.51125,-2.1265 -2.71501,-4.53375 -3.60876,-7.21875 -5.37125,4.92625 -11.69375,9.06487 -18.9675,12.42087 -7.275,3.35788 -15.945,5.03513 -26.01626,5.03513 -7.83375,0 -14.68625,-1.06488 -20.56125,-3.1885 -5.87375,-2.124 -10.7425,-5.09025 -14.6025,-8.89638 -3.86,-3.80137 -6.77125,-8.25 -8.7275,-13.34237 -1.95875,-5.09025 -2.9375,-10.66013 -2.9375,-16.70263 0,-14.99262 5.7325,-26.49025 17.20375,-34.49262 11.46875,-7.99763 28.45,-12 50.94126,-12 3.3575,0 6.685,0.084 9.98875,0.25137 3.2975,0.1685 6.90625,0.42 10.825,0.755 0,-10.18025 -2.12625,-17.98487 -6.37875,-23.41375 -4.25375,-5.42625 -11.24625,-8.14126 -20.98,-8.14126 -6.94,0 -14.01501,0.86875 -21.23376,2.60126 -7.21625,1.7375 -14.35,4.0575 -21.4,6.96625 l 0,-25.00876 c 6.1525,-2.90875 13.17625,-5.2025 21.065,-6.8825 7.88875,-1.6775 15.52626,-2.5175 22.91126,-2.5175 9.51,0 17.90125,0.9225 25.17625,2.77 7.27251,1.84625 13.37001,4.925 18.29626,9.23125 4.92125,4.30875 8.645,9.98625 11.16125,17.03751 2.5175,7.04738 3.7775,15.72125 3.7775,26.01513 l 0,53.20849 c 0,4.02888 1.0325,6.99275 3.105,8.89413 2.06875,1.90475 4.22125,2.8535 6.46125,2.8535 2.2375,0 4.30626,-0.0825 6.21001,-0.2515 1.90125,-0.1685 4.085,-0.52975 6.54625,-1.09087 l 0,19.30225 c -2.79875,2.01375 -6.23875,3.525 -10.32251,4.53375 -4.085,1.00487 -8.53375,1.50875 -13.3425,1.50875"
         style="fill:#5ca200;fill-opacity:1;fill-rule:nonzero;stroke:none"
         id="path24" />
    </g>
  </g>
  <g
     transform="translate(-193.66796,138.05412)"
     id="layer3">
    <g
       style="display:inline;fill:#5ca200;fill-opacity:1"
       transform="translate(190.90464,-117.84416)"
       id="g4212">
      <g
         id="text4181"
         style="font-style:normal;font-variant:normal;font-weight:normal;font-stretch:normal;font-size:106.25px;line-height:125%;font-family:Corbel;-inkscape-font-specification:'Corbel, Normal';text-align:center;letter-spacing:-0.52999997px;word-spacing:0px;writing-mode:lr-tb;text-anchor:middle;fill:#5ca200;fill-opacity:1;stroke:none;stroke-width:1px;stroke-linecap:butt;stroke-linejoin:miter;stroke-opacity:1">
        <path
           id="path4202"
           style="letter-spacing:-0.68000001px"
           d="m 576.46477,565.0199 q 0,3.06091 1.24511,5.08423 1.24512,1.97143 3.32032,3.26843 2.12707,1.297 4.8767,2.12707 2.80152,0.83008 5.81055,1.5564 4.04663,0.98572 7.93762,2.17896 3.94287,1.19323 7.00379,3.32031 3.06091,2.07519 4.92859,5.44739 1.91955,3.37219 1.91955,8.66394 0,5.3955 -2.02331,9.33837 -1.97144,3.891 -5.55115,6.43311 -3.52783,2.49023 -8.45642,3.68347 -4.92859,1.24512 -10.79102,1.24512 -2.69775,0 -5.55114,-0.36316 -2.80152,-0.31128 -5.39551,-0.88196 -2.54212,-0.57068 -4.61731,-1.297 -2.0752,-0.72631 -3.26843,-1.45263 l 0,-7.7301 q 1.86767,0.93383 4.20227,1.71203 2.33459,0.7782 4.82482,1.34888 2.49024,0.5188 5.03235,0.83008 2.54212,0.31128 4.77295,0.31128 3.63159,0 6.90003,-0.62256 3.32031,-0.62256 5.81054,-2.0752 2.49024,-1.45263 3.94287,-3.94287 1.45264,-2.54211 1.45264,-6.32934 0,-3.1128 -1.297,-5.13611 -1.24511,-2.02332 -3.37219,-3.32032 -2.12707,-1.34887 -4.92859,-2.17895 -2.74963,-0.83008 -5.81054,-1.5564 -4.04663,-0.93383 -7.93763,-2.07519 -3.83911,-1.19324 -6.90002,-3.26843 -3.00903,-2.0752 -4.87671,-5.34363 -1.81579,-3.26844 -1.81579,-8.35266 0,-5.29175 1.86767,-9.07898 1.86768,-3.83911 5.08423,-6.32935 3.21655,-2.49023 7.52258,-3.68347 4.30603,-1.19324 9.18274,-1.19324 5.55115,0 10.3241,1.08948 4.82483,1.0376 8.81958,2.74963 l 0,7.83387 q -4.30603,-1.8158 -8.92334,-2.95716 -4.56543,-1.14136 -9.8053,-1.19324 -3.94287,0 -6.84814,0.88196 -2.90528,0.83008 -4.82483,2.43836 -1.91956,1.55639 -2.8534,3.83911 -0.93383,2.23083 -0.93383,4.98047 z" />
        <path
           id="path4204"
           style="letter-spacing:-0.68000001px"
           d="m 653.03391,616.17346 q -1.0376,0.41504 -3.16467,0.7782 -2.12708,0.36316 -5.08423,0.41504 -3.89099,0 -6.74439,-0.98572 -2.85339,-0.93384 -4.77294,-2.69775 -1.86768,-1.8158 -2.80152,-4.35791 -0.93384,-2.54212 -0.93384,-5.65491 l 0,-29.98657 -9.49401,0 0,-6.90003 9.49401,0 0,-13.48877 8.04139,0 0,13.48877 14.73388,0 0,6.90003 -14.73388,0 0,28.74145 q 0,1.71204 0.46691,3.16468 0.5188,1.45263 1.5564,2.54211 1.08948,1.0376 2.74964,1.66016 1.66015,0.57068 3.99475,0.57068 1.60827,0 3.37219,-0.2594 1.81579,-0.2594 3.32031,-0.67444 l 0,6.74438 z" />
        <path
           id="path4206"
           style="letter-spacing:-0.68000001px"
           d="m 682.85928,617.3667 q -3.83911,0 -6.90002,-0.83008 -3.06092,-0.83008 -5.39551,-2.33459 -2.28272,-1.50452 -3.89099,-3.57972 -1.60828,-2.12707 -2.54212,-4.61731 -0.72631,-1.86767 -1.03759,-4.09851 -0.31128,-2.23083 -0.31128,-4.8767 l 0,-30.24598 8.04138,0 0,30.1941 q 0,4.09851 1.08948,6.84814 1.24511,3.11279 3.99475,4.92859 2.80151,1.76391 7.10754,1.76391 4.56543,0 7.31506,-1.97143 2.80152,-1.97144 3.99476,-5.29175 0.88195,-2.54211 0.88195,-6.27746 l 0,-30.1941 8.04139,0 0,30.29786 q 0,2.49023 -0.31128,4.66918 -0.2594,2.12708 -0.88196,3.94288 -0.93384,2.54211 -2.594,4.72106 -1.60827,2.12708 -3.99475,3.68348 -2.38647,1.55639 -5.55114,2.38647 -3.1128,0.88196 -7.05567,0.88196 z" />
        <path
           id="path4208"
           style="letter-spacing:-0.68000001px"
           d="m 723.1644,591.94556 q 0,4.25415 0.93383,7.7301 0.98572,3.42407 2.80152,5.86243 1.81579,2.38647 4.46167,3.68347 2.64587,1.29699 6.06994,1.29699 2.54212,0 4.61731,-0.67443 2.0752,-0.67444 3.68348,-1.71204 1.66015,-1.0376 2.80151,-2.17896 1.19324,-1.19323 1.86767,-2.17895 l 0,-25.7843 q -2.49023,-2.54212 -5.75866,-4.04663 -3.26843,-1.5564 -7.05567,-1.5564 -2.28271,0 -4.82483,0.88196 -2.49023,0.83008 -4.66918,3.06091 -2.12708,2.23084 -3.52784,6.01807 -1.40075,3.73535 -1.40075,9.59778 z m -8.40454,0.10376 q 0,-5.13611 0.98571,-9.07898 1.0376,-3.99475 2.69776,-6.95191 1.66015,-2.95715 3.89099,-4.92859 2.23083,-2.02331 4.61731,-3.26843 2.38647,-1.24512 4.82483,-1.76391 2.49023,-0.57068 4.66919,-0.57068 4.51355,0 7.83386,1.50451 3.32031,1.50452 5.96619,4.40979 l 0.15563,0 0,-30.45349 8.04139,0 0,75.12207 -6.06995,0 -1.66016,-5.49927 -0.20752,0 q -0.93383,1.19324 -2.17895,2.43836 -1.24512,1.19324 -2.95715,2.17895 -1.66016,0.98572 -3.89099,1.5564 -2.17896,0.62256 -5.08423,0.62256 -4.04663,0 -7.93763,-1.34888 -3.89099,-1.40075 -6.9519,-4.40979 -3.00903,-3.06091 -4.87671,-7.83386 -1.86767,-4.82483 -1.86767,-11.72485 z" />
        <path
           id="path4210"
           style="letter-spacing:-0.68000001px"
           d="m 793.09291,572.38684 q -2.74963,0 -5.13611,1.08948 -2.33459,1.08948 -4.09851,2.95715 -1.76392,1.86768 -2.85339,4.40979 -1.08948,2.49024 -1.34888,5.34363 l 24.90234,0 q 0,-2.90527 -0.7782,-5.39551 -0.72631,-2.54211 -2.17895,-4.40979 -1.45264,-1.86767 -3.57971,-2.90527 -2.12708,-1.08948 -4.92859,-1.08948 z m 4.40979,37.97608 q 3.99475,0 7.26318,-0.62256 3.32032,-0.67444 6.58875,-1.86768 l 0,6.69251 q -2.64588,1.29699 -6.53687,2.02331 -3.89099,0.7782 -8.35266,0.7782 -5.29175,0 -9.96094,-1.34888 -4.61731,-1.34887 -8.09326,-4.35791 -3.47595,-3.00903 -5.49927,-7.83386 -1.97143,-4.87671 -1.97143,-11.72485 0,-6.74439 1.86767,-11.67298 1.86768,-4.98047 4.98047,-8.30078 3.1128,-3.32031 7.15943,-4.98047 4.04663,-1.66015 8.45642,-1.66015 4.15039,0 7.7301,1.40075 3.63159,1.34888 6.27747,4.30603 2.64587,2.95716 4.15039,7.62635 1.55639,4.66919 1.55639,11.20605 0,0.62256 0,1.08948 0,0.41504 -0.0519,1.97143 l -33.82568,0 q 0,4.72107 1.40076,8.04139 1.45263,3.26843 3.89099,5.34362 2.49023,2.02332 5.81055,2.95716 3.32031,0.93384 7.15942,0.93384 z" />
        <path
           id="path4212"
           style="letter-spacing:-0.68000001px"
           d="m 833.81306,573.63196 0.15564,0 q 1.34888,-1.71204 2.95716,-3.16467 1.66015,-1.50452 3.68347,-2.594 2.02331,-1.14136 4.40979,-1.76392 2.43835,-0.62255 5.29175,-0.62255 3.37219,0 6.32934,0.93383 2.95715,0.93384 5.13611,3.00904 2.17895,2.07519 3.42407,5.44739 1.297,3.32031 1.297,8.19702 l 0,32.9956 -8.04138,0 0,-31.69861 q 0,-6.38122 -2.49024,-9.18274 -2.43835,-2.80151 -7.15942,-2.80151 -4.15039,0 -8.04138,2.3346 -3.89099,2.28271 -6.69251,6.32934 l 0,35.01892 -8.04138,0 0,-49.28589 6.22559,0 1.55639,6.84815 z" />
        <path
           id="path4214"
           style="letter-spacing:-0.68000001px"
           d="m 907.37318,616.17346 q -1.0376,0.41504 -3.16467,0.7782 -2.12708,0.36316 -5.08423,0.41504 -3.89099,0 -6.74438,-0.98572 -2.8534,-0.93384 -4.77295,-2.69775 -1.86768,-1.8158 -2.80152,-4.35791 -0.93383,-2.54212 -0.93383,-5.65491 l 0,-29.98657 -9.49402,0 0,-6.90003 9.49402,0 0,-13.48877 8.04138,0 0,13.48877 14.73388,0 0,6.90003 -14.73388,0 0,28.74145 q 0,1.71204 0.46692,3.16468 0.5188,1.45263 1.55639,2.54211 1.08948,1.0376 2.74964,1.66016 1.66015,0.57068 3.99475,0.57068 1.60827,0 3.37219,-0.2594 1.8158,-0.2594 3.32031,-0.67444 l 0,6.74438 z" />
        <path
           id="path4216"
           style="letter-spacing:-0.68000001px"
           d="m 936.93913,572.38684 q -2.74963,0 -5.13611,1.08948 -2.33459,1.08948 -4.09851,2.95715 -1.76391,1.86768 -2.85339,4.40979 -1.08948,2.49024 -1.34888,5.34363 l 24.90235,0 q 0,-2.90527 -0.7782,-5.39551 -0.72632,-2.54211 -2.17896,-4.40979 -1.45264,-1.86767 -3.57971,-2.90527 -2.12708,-1.08948 -4.92859,-1.08948 z m 4.40979,37.97608 q 3.99475,0 7.26318,-0.62256 3.32032,-0.67444 6.58875,-1.86768 l 0,6.69251 q -2.64587,1.29699 -6.53687,2.02331 -3.89099,0.7782 -8.35266,0.7782 -5.29174,0 -9.96093,-1.34888 -4.61731,-1.34887 -8.09327,-4.35791 -3.47595,-3.00903 -5.49926,-7.83386 -1.97144,-4.87671 -1.97144,-11.72485 0,-6.74439 1.86768,-11.67298 1.86767,-4.98047 4.98047,-8.30078 3.11279,-3.32031 7.15942,-4.98047 4.04663,-1.66015 8.45642,-1.66015 4.15039,0 7.7301,1.40075 3.63159,1.34888 6.27747,4.30603 2.64587,2.95716 4.15039,7.62635 1.5564,4.66919 1.5564,11.20605 0,0.62256 0,1.08948 0,0.41504 -0.0519,1.97143 l -33.82569,0 q 0,4.72107 1.40076,8.04139 1.45264,3.26843 3.89099,5.34362 2.49023,2.02332 5.81055,2.95716 3.32031,0.93384 7.15942,0.93384 z" />
        <path
           id="path4218"
           style="letter-spacing:-0.68000001px"
           d="m 977.65928,573.63196 0.15564,0 q 1.34888,-1.71204 2.95716,-3.16467 1.66015,-1.50452 3.68347,-2.594 2.02331,-1.14136 4.40979,-1.76392 2.43835,-0.62255 5.29175,-0.62255 3.37219,0 6.32931,0.93383 2.9572,0.93384 5.1361,3.00904 2.179,2.07519 3.4241,5.44739 1.297,3.32031 1.297,8.19702 l 0,32.9956 -8.0414,0 0,-31.69861 q 0,-6.38122 -2.49021,-9.18274 -2.43835,-2.80151 -7.15942,-2.80151 -4.15039,0 -8.04138,2.3346 -3.89099,2.28271 -6.69251,6.32934 l 0,35.01892 -8.04138,0 0,-49.28589 6.22559,0 1.55639,6.84815 z" />
        <path
           id="path4220"
           style="letter-spacing:-0.68000001px"
           d="m 1052.257,573.32068 -0.6226,0 q -2.8534,0 -5.603,0.5188 -2.7496,0.5188 -5.188,1.60827 -2.3864,1.0376 -4.3579,2.594 -1.9195,1.55639 -3.2165,3.68347 l 0,34.34448 -8.0414,0 0,-49.28589 6.2256,0 1.5564,7.83387 0.1556,0 q 1.1932,-1.91956 2.9053,-3.57972 1.7639,-1.66015 3.9428,-2.90527 2.179,-1.24512 4.773,-1.91956 2.594,-0.72631 5.4474,-0.72631 0.5188,0 1.0376,0.0519 0.5707,0 0.9857,0.0519 l 0,7.7301 z" />
        <path
           id="path4222"
           style="letter-spacing:-0.68000001px"
           d="m 1089.0862,610.62231 -0.2076,0 q -0.9857,1.24512 -2.4902,2.49024 -1.5045,1.19324 -3.4759,2.17895 -1.9715,0.93384 -4.3061,1.50452 -2.3346,0.57068 -4.9804,0.57068 -3.5798,0 -6.5888,-1.08948 -2.9571,-1.0376 -5.1361,-3.06091 -2.1271,-2.0752 -3.3203,-5.03235 -1.1932,-2.95715 -1.1932,-6.6925 0,-3.68348 1.297,-6.58875 1.3488,-2.90527 3.7353,-4.92859 2.3865,-2.02331 5.7068,-3.11279 3.3722,-1.08948 7.4188,-1.08948 3.8391,0.0519 7.1076,0.67444 3.2684,0.62256 5.8105,1.5564 l 0.2075,0 0,-3.42408 q 0,-2.02331 -0.2594,-3.57971 -0.2594,-1.5564 -0.8819,-2.74963 -1.3489,-2.49024 -4.3061,-4.09851 -2.9571,-1.66016 -7.9895,-1.66016 -3.7353,0 -7.0556,0.72632 -3.2685,0.67444 -6.5369,1.91955 l 0,-6.74438 q 1.2451,-0.62256 2.9053,-1.14136 1.712,-0.57068 3.5797,-0.93384 1.8677,-0.41503 3.9429,-0.62255 2.0752,-0.20752 4.1504,-0.20752 7.4707,0 12.1917,2.64587 4.773,2.64587 6.8482,7.00378 0.7782,1.66016 1.0894,3.68348 0.3632,1.97143 0.3632,4.35791 l 0,32.89184 -6.7444,0 -0.8819,-5.44739 z m -0.4151,-16.18652 q -2.2308,-0.62256 -5.2917,-1.19324 -3.0609,-0.57068 -6.7444,-0.62255 -5.1361,0 -8.0414,2.17895 -2.9053,2.17896 -2.9053,6.69251 0,2.28271 0.7264,3.99475 0.7263,1.71203 1.9714,2.85339 1.297,1.08948 3.009,1.66016 1.7639,0.51879 3.7354,0.51879 2.594,0 4.8248,-0.72631 2.2308,-0.7782 3.9429,-1.8158 1.7639,-1.0376 2.9571,-2.07519 1.2451,-1.0376 1.8158,-1.60828 l 0,-9.85718 z" />
        <path
           id="path4224"
           style="letter-spacing:-0.68000001px"
           d="m 1140.4936,610.62231 -0.2075,0 q -0.9858,1.24512 -2.4903,2.49024 -1.5045,1.19324 -3.4759,2.17895 -1.9715,0.93384 -4.3061,1.50452 -2.3346,0.57068 -4.9804,0.57068 -3.5797,0 -6.5888,-1.08948 -2.9571,-1.0376 -5.1361,-3.06091 -2.1271,-2.0752 -3.3203,-5.03235 -1.1932,-2.95715 -1.1932,-6.6925 0,-3.68348 1.297,-6.58875 1.3488,-2.90527 3.7353,-4.92859 2.3865,-2.02331 5.7068,-3.11279 3.3722,-1.08948 7.4188,-1.08948 3.8391,0.0519 7.1076,0.67444 3.2684,0.62256 5.8105,1.5564 l 0.2075,0 0,-3.42408 q 0,-2.02331 -0.2594,-3.57971 -0.2594,-1.5564 -0.8819,-2.74963 -1.3489,-2.49024 -4.3061,-4.09851 -2.9571,-1.66016 -7.9895,-1.66016 -3.7353,0 -7.0556,0.72632 -3.2685,0.67444 -6.5369,1.91955 l 0,-6.74438 q 1.2451,-0.62256 2.9053,-1.14136 1.712,-0.57068 3.5797,-0.93384 1.8677,-0.41503 3.9429,-0.62255 2.0752,-0.20752 4.1504,-0.20752 7.4707,0 12.1917,2.64587 4.773,2.64587 6.8482,7.00378 0.7782,1.66016 1.0895,3.68348 0.3631,1.97143 0.3631,4.35791 l 0,32.89184 -6.7444,0 -0.8819,-5.44739 z m -0.4151,-16.18652 q -2.2308,-0.62256 -5.2917,-1.19324 -3.0609,-0.57068 -6.7444,-0.62255 -5.1361,0 -8.0414,2.17895 -2.9053,2.17896 -2.9053,6.69251 0,2.28271 0.7264,3.99475 0.7263,1.71203 1.9714,2.85339 1.297,1.08948 3.009,1.66016 1.764,0.51879 3.7354,0.51879 2.594,0 4.8248,-0.72631 2.2308,-0.7782 3.9429,-1.8158 1.7639,-1.0376 2.9571,-2.07519 1.2452,-1.0376 1.8158,-1.60828 l 0,-9.85718 z" />
        <path
           id="path4226"
           style="letter-spacing:-0.68000001px"
           d="m 1168.6069,591.94556 q 0,4.25415 0.9339,7.7301 0.9857,3.42407 2.8015,5.86243 1.8158,2.38647 4.4616,3.68347 2.6459,1.29699 6.07,1.29699 2.5421,0 4.6173,-0.67443 2.0752,-0.67444 3.6835,-1.71204 1.6601,-1.0376 2.8015,-2.17896 1.1932,-1.19323 1.8677,-2.17895 l 0,-25.7843 q -2.4903,-2.54212 -5.7587,-4.04663 -3.2684,-1.5564 -7.0557,-1.5564 -2.2827,0 -4.8248,0.88196 -2.4902,0.83008 -4.6692,3.06091 -2.1271,2.23084 -3.5278,6.01807 -1.4008,3.73535 -1.4008,9.59778 z m -8.4045,0.10376 q 0,-5.13611 0.9857,-9.07898 1.0376,-3.99475 2.6977,-6.95191 1.6602,-2.95715 3.891,-4.92859 2.2309,-2.02331 4.6173,-3.26843 2.3865,-1.24512 4.8249,-1.76391 2.4902,-0.57068 4.6692,-0.57068 4.5135,0 7.8338,1.50451 3.3203,1.50452 5.9662,4.40979 l 0.1557,0 0,-30.45349 8.0413,0 0,75.12207 -6.0699,0 -1.6602,-5.49927 -0.2075,0 q -0.9338,1.19324 -2.1789,2.43836 -1.2452,1.19324 -2.9572,2.17895 -1.6601,0.98572 -3.891,1.5564 -2.1789,0.62256 -5.0842,0.62256 -4.0466,0 -7.9376,-1.34888 -3.891,-1.40075 -6.9519,-4.40979 -3.0091,-3.06091 -4.8767,-7.83386 -1.8677,-4.82483 -1.8677,-11.72485 z" />
      </g>
      <g
         id="text4185"
         style="font-style:normal;font-variant:normal;font-weight:bold;font-stretch:normal;font-size:125px;line-height:125%;font-family:Corbel;-inkscape-font-specification:'Corbel, Bold';text-align:center;letter-spacing:7.34000301px;word-spacing:0px;writing-mode:lr-tb;text-anchor:middle;fill:#5ca200;fill-opacity:1;stroke:none;stroke-width:1px;stroke-linecap:butt;stroke-linejoin:miter;stroke-opacity:1">
        <path
           id="path4229"
           style=""
           d="m 606.02611,721.16187 q -6.40869,0 -11.53564,-1.28174 -5.12695,-1.22071 -9.0332,-3.54004 -3.90625,-2.38037 -6.65283,-5.73731 -2.74659,-3.41797 -4.39454,-7.69043 -1.34277,-3.41797 -1.95312,-7.56836 -0.54932,-4.15039 -0.54932,-9.27734 l 0,-48.0957 14.95362,0 0,46.75293 q 0,8.66699 2.07519,13.5498 2.31934,5.43213 6.7749,7.87354 4.45557,2.38037 10.49805,2.38037 6.04248,0 10.49805,-2.38037 4.45556,-2.44141 6.7749,-7.87354 2.07519,-4.88281 2.07519,-13.5498 l 0,-46.75293 14.95362,0 0,48.0957 q 0,5.12695 -0.61035,9.27734 -0.54932,4.15039 -1.89209,7.56836 -1.64795,4.27246 -4.45557,7.69043 -2.74658,3.35694 -6.7749,5.73731 -3.96729,2.31933 -9.15528,3.54004 -5.18798,1.28174 -11.59668,1.28174 z" />
        <path
           id="path4231"
           style=""
           d="m 682.15274,671.60132 37.8418,0 0,-33.63037 14.95361,0 0,81.66504 -14.95361,0 0,-35.52246 -37.8418,0 0,35.52246 -14.95361,0 0,-81.66504 14.95361,0 0,33.63037 z" />
        <path
           id="path4233"
           style=""
           d="m 808.6944,698.823 -30.76171,0 -7.99561,20.81299 -15.93018,0 32.40967,-81.66504 13.67188,0 32.40967,81.66504 -15.80811,0 -7.99561,-20.81299 z m -15.50293,-41.19873 q -4.27246,12.81738 -7.62939,21.42334 l -2.80762,7.26318 21.11817,0 -2.80762,-7.26318 q -3.35693,-8.66699 -7.62939,-21.42334 l -0.24415,0 z" />
        <path
           id="path4235"
           style=""
           d="m 891.71801,696.19849 q 0,-3.1128 -1.52588,-5.00489 -1.52588,-1.95312 -4.15039,-3.17382 -2.62451,-1.22071 -5.92041,-1.95313 -3.23486,-0.79346 -6.83594,-1.52588 -4.76074,-1.0376 -9.09424,-2.4414 -4.33349,-1.46485 -7.62939,-3.96729 -3.2959,-2.56348 -5.24902,-6.46973 -1.95313,-3.90625 -1.95313,-9.76562 0,-6.46973 2.2583,-11.23047 2.2583,-4.82178 6.10352,-7.93457 3.90625,-3.17383 9.09424,-4.69971 5.24902,-1.58691 11.77978,-1.58691 6.53076,0 13.12256,1.28174 6.5918,1.28173 11.35254,3.2959 l 0,12.81738 q -6.34766,-2.50244 -12.20703,-3.60108 -5.79834,-1.15966 -10.9253,-1.15966 -7.38525,0 -11.41357,2.68554 -3.96729,2.68555 -3.96729,8.05664 0,3.1128 1.28174,5.12696 1.34278,2.01416 3.60108,3.35693 2.2583,1.28174 5.18799,2.0752 2.92968,0.79345 6.22558,1.46484 5.18799,1.09863 9.8877,2.56348 4.76074,1.4038 8.42285,3.96728 3.66211,2.56348 5.79834,6.71387 2.13623,4.08935 2.13623,10.49804 0,6.5918 -2.44141,11.41358 -2.4414,4.82178 -6.95801,7.9956 -4.45556,3.1128 -10.86425,4.63868 -6.40869,1.52588 -14.03809,1.52588 -6.65283,0 -13.12256,-1.34278 -6.40869,-1.28174 -10.68115,-3.66211 l 0,-12.63427 q 6.04248,2.62451 11.77979,3.84521 5.7373,1.15967 11.84082,1.15967 3.54003,0 6.958,-0.54932 3.41797,-0.61035 6.10352,-2.01416 2.74658,-1.40381 4.39453,-3.78418 1.64795,-2.4414 1.64795,-5.98144 z" />
        <path
           id="path4237"
           style=""
           d="m 971.32363,696.19849 q 0,-3.1128 -1.52588,-5.00489 -1.52588,-1.95312 -4.15039,-3.17382 -2.62451,-1.22071 -5.92041,-1.95313 -3.23486,-0.79346 -6.83594,-1.52588 -4.76074,-1.0376 -9.09423,-2.4414 -4.3335,-1.46485 -7.6294,-3.96729 -3.2959,-2.56348 -5.24902,-6.46973 -1.95313,-3.90625 -1.95313,-9.76562 0,-6.46973 2.2583,-11.23047 2.2583,-4.82178 6.10352,-7.93457 3.90625,-3.17383 9.09424,-4.69971 5.24902,-1.58691 11.77978,-1.58691 6.53076,0 13.12256,1.28174 6.5918,1.28173 11.35254,3.2959 l 0,12.81738 q -6.34766,-2.50244 -12.20703,-3.60108 -5.79834,-1.15966 -10.92529,-1.15966 -7.38526,0 -11.41358,2.68554 -3.96728,2.68555 -3.96728,8.05664 0,3.1128 1.28173,5.12696 1.34278,2.01416 3.60108,3.35693 2.2583,1.28174 5.18799,2.0752 2.92968,0.79345 6.22558,1.46484 5.18799,1.09863 9.8877,2.56348 4.76074,1.4038 8.42285,3.96728 3.66211,2.56348 5.79834,6.71387 2.13623,4.08935 2.13623,10.49804 0,6.5918 -2.44141,11.41358 -2.4414,4.82178 -6.958,7.9956 -4.45557,3.1128 -10.86426,4.63868 -6.40869,1.52588 -14.03809,1.52588 -6.65283,0 -13.12256,-1.34278 -6.40869,-1.28174 -10.68115,-3.66211 l 0,-12.63427 q 6.04248,2.62451 11.77979,3.84521 5.7373,1.15967 11.84082,1.15967 3.54004,0 6.958,-0.54932 3.41797,-0.61035 6.10352,-2.01416 2.74658,-1.40381 4.39453,-3.78418 1.64795,-2.4414 1.64795,-5.98144 z" />
        <path
           id="path4239"
           style=""
           d="m 1025.7217,707.12378 40.1612,0 0,12.51221 -55.1148,0 0,-81.66504 52.9175,0 0,12.5122 -37.9639,0 0,21.11817 32.5928,0 0,12.51221 -32.5928,0 0,23.01025 z" />
        <path
           id="path4241"
           style=""
           d="m 1104.1067,637.97095 0,69.15283 38.208,0 0,12.51221 -53.1616,0 0,-81.66504 14.9536,0 z" />
        <path
           id="path4243"
           style=""
           d="m 1181.8812,719.63599 -14.9536,0 0,-69.15284 -26.3672,0 0,-12.5122 67.627,0 0,12.5122 -26.3062,0 0,69.15284 z" />
      </g>
    </g>
  </g>
</svg>
