<?xml version="1.0" encoding="UTF-8" standalone="no"?>
<svg
   xmlns:dc="http://purl.org/dc/elements/1.1/"
   xmlns:cc="http://creativecommons.org/ns#"
   xmlns:rdf="http://www.w3.org/1999/02/22-rdf-syntax-ns#"
   xmlns:svg="http://www.w3.org/2000/svg"
   xmlns="http://www.w3.org/2000/svg"
   viewBox="0 0 2731.25 621.25"
   height="621.25"
   width="2731.25"
   xml:space="preserve"
   version="1.1"
   id="svg2"><metadata
     id="metadata8"><rdf:RDF><cc:Work
         rdf:about=""><dc:format>image/svg+xml</dc:format><dc:type
           rdf:resource="http://purl.org/dc/dcmitype/StillImage" /><dc:title></dc:title></cc:Work></rdf:RDF></metadata><defs
     id="defs6" /><g
     transform="matrix(1.25,0,0,-1.25,0,621.25)"
     id="g10"><g
       transform="scale(0.148943,0.148943)"
       id="g12"><path
         id="path14"
         style="fill:#ff2b06;fill-opacity:1;fill-rule:nonzero;stroke:none"
         d="m 696.102,2819.8 c 428.348,0 856.638,0.06 1284.988,0 0.07,-126.56 0,-253.19 0,-379.75 -138.18,0 -276.35,-0.06 -414.59,0 0,-367.05 0,-734.03 0,-1101.09 -151.94,0 -303.87,0 -455.81,0 0,367.06 0,734.04 0,1101.09 -138.241,0 -276.413,0 -414.588,0 0,126.56 0,253.19 0,379.75 m 1356.218,0 c 415.87,0 831.66,0.06 1247.52,0 0,-126.56 0.07,-253.19 0,-379.75 -263.86,0 -527.78,0 -791.71,0 0,-61.43 0,-122.79 0,-184.23 263.93,0 527.85,0.07 791.71,0 0,-117.62 0.07,-235.25 0,-352.88 -263.86,0 -527.78,0 -791.71,0 0,-61.44 0,-122.8 0,-184.23 263.93,0 527.85,0.06 791.71,0 0,-126.56 0.07,-253.19 0,-379.75 -415.86,0 -831.65,0 -1247.52,0 -0.06,493.61 0,987.22 0,1480.84 m 1324.33,0 c 210.42,0 420.83,0 631.25,0 118.64,0.6 240.02,3.08 354.16,-34.25 125.35,-38 236.4,-120.85 307.1,-231.29 86.54,-133.68 120.31,-295.08 123.13,-452.59 2.35,-151.2 -20.61,-307.16 -94.87,-440.84 -54.92,-99.97 -140.65,-182.15 -242.17,-233.85 -127.16,-65.25 -271.98,-87.55 -413.58,-88.08 -221.7,0.06 -443.39,0.06 -665.08,0.06 0.06,493.61 0.06,987.22 0.06,1480.84 m 455.81,-379.75 c 0,-240.42 0,-480.92 0,-721.34 65.4,0.2 130.79,-0.27 196.25,0.2 81.98,1.48 167.31,29.74 222.37,92.92 61.36,69.69 82.04,165.16 84.86,255.6 3.43,97.08 -20.41,200.81 -88.42,273.26 -56.06,60.96 -138.64,90.17 -219.55,96.68 -65.06,4.9 -130.38,1.81 -195.51,2.68 m 1017.64,381.96 c 111.65,0 223.24,0 334.89,0 41.02,-73.31 82.05,-146.63 123.47,-219.68 42.83,72.98 84.73,146.5 127.16,219.68 111.59,0 223.11,0 334.69,0 -101.78,-148.71 -203.56,-297.49 -305.48,-446.21 105.67,-155.42 211.49,-310.72 316.96,-466.21 -111.52,0.06 -223.1,0.13 -334.62,0 -46.26,76.54 -92.25,153.27 -138.64,229.75 -45.26,-76.48 -90.17,-153.08 -135.15,-229.69 -111.59,-0.06 -223.18,-0.06 -334.76,0 105.67,155.36 211.42,310.73 317.03,466.22 -101.99,148.65 -203.63,297.49 -305.55,446.14 M 738.336,846.43 c 33.703,0.066 67.473,0 101.246,0.066 18.863,-27.797 37.531,-55.726 56.465,-83.453 18.797,27.66 37.195,55.523 55.723,83.387 32.832,0 65.6,0.066 98.36,-0.067 -35.18,-50.222 -70.564,-100.375 -105.814,-150.664 39.883,-57.269 79.694,-114.539 119.374,-172.011 -33.77,0.07 -67.542,0.07 -101.311,0.07 -22.625,33.836 -44.918,67.808 -67.406,101.648 -22.762,-33.703 -45.051,-67.746 -67.477,-101.648 -33.234,0 -66.469,0 -99.703,0 38.809,56.73 77.68,113.328 116.285,170.129 -35.246,50.894 -70.562,101.648 -105.742,152.543" /><path
         id="path16"
         style="fill:#000000;fill-opacity:1;fill-rule:nonzero;stroke:none"
         d="m 5997.24,2817.38 c 65.73,0 131.46,0 197.26,0 -0.07,-287.9 0.07,-575.79 -0.07,-863.75 -0.8,-72.92 4.7,-146.97 28.61,-216.46 24.3,-71.71 68.81,-139.52 135.15,-178.66 77.07,-46.26 170.94,-52.23 258.42,-43.37 88.28,8.52 178.52,42.5 236.06,112.66 66.27,78.82 82.11,186.04 83.65,285.75 0,301.25 0,602.58 0,903.83 66.07,0 132.07,0 198.13,0 0,-227.4 0,-454.81 0,-682.14 -0.27,-107.83 2.69,-216.19 -12.35,-323.21 -13.7,-102.12 -42.97,-205.58 -107.69,-287.62 -67.75,-89.84 -172.41,-145.83 -281.45,-167.65 -106.62,-21.29 -217.46,-21.56 -324.42,-2.29 -111.11,20.35 -219.01,75.07 -288.77,165.84 -69.89,87.08 -99.63,198.4 -112.66,307.43 -13.09,101.92 -9.4,204.84 -9.87,307.37 0,227.4 -0.06,454.87 0,682.27 m 1478.75,-0.07 c 65.73,0.07 131.46,0 197.26,0.07 0,-198.06 -0.07,-396.13 0,-594.19 246.13,-0.06 492.33,0 738.47,-0.06 0,198.12 0.07,396.19 0,594.25 65.73,0 131.53,0 197.25,-0.07 0,-479.44 0,-958.95 0,-1438.4 -65.72,-0.06 -131.45,-0.06 -197.18,-0.06 -0.07,224.11 0,448.15 -0.07,672.26 -246.14,0 -492.34,0 -738.47,0 -0.07,-224.11 0,-448.15 0,-672.26 -65.8,0.06 -131.53,0 -197.26,0.06 0,479.45 0,958.96 0,1438.4 m 5857.91,0.07 c 59,-0.07 118.1,0 177.1,-0.07 0,-479.44 0,-958.95 0,-1438.4 -59,-0.06 -118.1,0 -177.1,-0.06 0,479.51 0,959.02 0,1438.53 m 515.3,-97.42 c 59.8,0.07 119.7,0.07 179.6,0 0,-97.28 0,-194.64 0,-291.99 55.7,0 111.3,0 167.1,-0.07 -0.1,-48.34 -0.1,-96.75 0,-145.15 -55.8,0 -111.4,0 -167.1,0 0,-228.28 0,-456.55 0,-684.83 -1.5,-30.41 12.8,-64.25 43.6,-74.39 39.8,-12.62 82.5,-7.45 123.5,-4.36 -0.1,-46.87 -0.2,-93.79 0,-140.73 -73.2,-18.19 -151.8,-24.03 -225.4,-4.9 -45.9,11.42 -82.3,47.34 -98.6,91.11 -29.1,67.41 -21.7,142.33 -22.7,213.77 0,201.42 0,402.91 0,604.33 -47.3,0 -94.6,0 -141.8,0 0,48.4 0,96.81 0,145.15 47.2,0.07 94.5,0.07 141.8,0.07 0,97.35 0,194.71 0,291.99 M 10150,2351.5 c 82.1,78.28 199.6,105.54 310.2,103.46 110.3,0.33 228.8,-24.3 310.5,-103.46 60.5,-58.35 97.7,-141.06 96.5,-225.66 -55.6,-0.07 -111.3,-0.07 -166.9,0 -7.2,51.56 -29.1,105.34 -74.8,134.21 -56.7,36.39 -126.5,42.84 -192.3,42.64 -55.7,-1.41 -116.4,-9.94 -159.4,-48.68 -41.6,-35.58 -51.8,-101.58 -23.4,-148.24 42.8,-65.13 125.5,-81.38 196,-98.97 88.4,-21.48 177.8,-40.35 263.8,-70.63 39.4,-14.23 79.4,-30.14 111.7,-57.67 36.9,-30.55 61.6,-74.26 72,-120.79 19,-85.73 5,-180 -44.9,-253.11 -44,-66.81 -111.4,-117.3 -188.2,-139.85 -79.7,-24.71 -164.2,-28.94 -247,-24.71 -78.1,4.63 -158.3,18.33 -226.2,58.95 -104.3,65.12 -158.4,189.94 -162.9,309.71 56.6,0 113.4,0.07 170.1,0 5.8,-50.56 16.9,-103.86 51.8,-142.94 45.2,-50.62 114.6,-70.03 180,-75.46 84.7,-7.66 176.2,4.16 246.4,55.25 65.1,47.61 76.5,162.61 6,210.55 -48,30.62 -105.3,41.29 -159.4,56.53 -102.8,27.53 -209.2,45.12 -307,88.5 -67.9,30.01 -131.2,83.51 -150.2,157.91 -24.6,103.59 7.9,220.48 87.6,292.46 m 1055.2,11.68 c 93.7,80.03 223.2,98.36 342.4,90.44 100,-5.91 204.4,-36.66 274.7,-111.59 55.2,-57.6 88.1,-136.09 87.3,-216.19 -55.7,-0.07 -111.4,-0.07 -167.1,0 -7,50.36 -28.1,102.86 -71.8,132.13 -55.3,37.4 -124.6,44.32 -189.8,44.78 -57.7,-0.87 -121,-8.86 -165.5,-49.28 -41.9,-36.39 -51.3,-104 -21,-150.46 18.3,-28.93 48.4,-47.87 79.2,-61.56 50.4,-21.89 104.9,-31.63 158,-44.92 87.3,-20.95 175.5,-40.82 258.8,-75.06 42.1,-17.06 81.9,-42.9 108.5,-80.37 39.4,-53.71 49.1,-123.4 44,-188.33 -9,-119.84 -92.6,-228.4 -202.6,-274.33 -94.3,-39.14 -198.9,-43.9 -299.6,-37.39 -85.7,6.51 -175.3,25.51 -243.6,80.97 -82.9,70.63 -126.1,179.26 -130.2,286.68 56.7,0 113.4,0.07 170.1,0 6,-51.76 17.5,-106.88 54.6,-146.02 43.2,-46.27 107.4,-65.33 168.7,-71.58 84.1,-8.93 174.3,1.08 246.6,48.28 57.4,36.52 79.1,118.83 48.4,179.19 -24.1,44.05 -75,60.09 -119.8,73.86 -91.5,27.12 -185,45.85 -276.9,71.5 -63.4,18.66 -127.9,41.02 -179.7,83.59 -38.1,30.48 -66.6,73.52 -76.8,121.45 -21.1,107.03 17.4,225.06 103.1,294.21 m -2061.19,53.44 c 102.59,41.23 216.53,43.38 324.69,27.93 76.07,-12.22 153.14,-36.86 213.16,-86.94 54.93,-46.13 80.17,-119.04 79.97,-189.34 0.67,-203.7 -0.07,-407.47 0.33,-611.17 0.07,-20.07 5.31,-45.45 26.59,-53.31 28.87,-9.66 59.75,-2.55 89.16,0.67 -0.07,-43.64 0,-87.21 0,-130.85 -65.93,-18.6 -141.33,-29.74 -205.11,1.21 -52.37,26.52 -71.64,87.01 -79.29,141.13 -111.45,-134.82 -300.79,-200.22 -471.66,-161.68 -113.6,25.65 -210.28,120.72 -230.29,236.6 -13.62,82.32 -3.89,172.82 44.25,242.98 59.55,83.32 160.46,126.42 259.03,141.86 99.56,13.5 199.4,25.18 299.1,37.94 29.95,3.36 62.04,14.84 78.76,41.69 18.26,29.55 18.19,66.2 15.77,99.71 -3.29,42.5 -24.84,84.33 -61.56,107.02 -55.59,35.11 -123.61,41.29 -187.79,41.63 -62.58,-0.68 -130.66,-13.03 -176.85,-58.75 -37.66,-36.19 -49.41,-89.57 -56.73,-139.25 -55.06,-0.07 -110.04,0 -165.03,-0.07 2.35,74.06 16.38,151.4 61.5,212.1 34.71,47.93 88.42,76.87 142,98.89 m 174.56,-569.88 c -61.16,-8.19 -125.35,-16.45 -178.39,-50.49 -85.47,-53.64 -95.2,-195.51 -14.36,-257.55 35.38,-28.73 80.76,-43.7 126.22,-44.51 81.17,-1.28 162.67,23.3 229.95,68.69 54.52,36.79 91.85,97.35 99.64,162.74 6.91,61.3 1.67,123.13 3.49,184.7 -81.31,-45.45 -176.18,-51.56 -266.55,-63.58 m 3116.13,575.99 c 118,41.7 252.5,38.81 366.7,-13.83 81,-35.78 154.3,-93.99 196.4,-173.15 65.2,-118.23 68.6,-257.68 68.4,-389.41 -254.1,0 -508.2,0 -762.3,0 3,-67.14 13.2,-135.15 41.2,-196.79 19.9,-43.77 48.2,-85.4 88.9,-112.39 54.6,-36.93 123.2,-46.26 187.8,-42.1 63.2,3.9 126.1,27.4 172.5,71.37 41.4,37.8 68.2,89.1 84.2,142.41 58,-0.27 116.1,0 174.2,-0.14 -18.6,-102.92 -76.3,-197.99 -155.1,-266.14 -95.7,-81.31 -226.7,-106.42 -349.3,-99.97 -109.2,5.04 -214.6,54.25 -290.2,132.94 -83.2,81.37 -126,195.84 -138.3,309.91 -13.5,127.97 -3.5,261.71 49.5,380.35 51.4,114.87 145.4,213.97 265.4,256.94 m 44.3,-150.86 c -60,-28.4 -107.9,-79.63 -136.8,-138.91 -22.4,-45.19 -31.5,-95.48 -34.6,-145.42 192.4,-0.41 384.8,-0.08 577.2,-0.21 -7.8,73.05 -22.7,148.85 -67,209.28 -33.6,47.13 -85.7,79.49 -142,91.64 -65.1,14.3 -135.7,12.36 -196.8,-16.38 M 1634.04,895.574 c 0.07,24.574 0.07,49.149 0.07,73.719 29.54,0 59.15,0 88.83,0 -0.07,-24.57 -0.07,-49.145 0,-73.719 -29.68,-0.066 -59.29,0 -88.9,0 m 727.66,73.719 c 29.61,0 59.22,0 88.83,0 0,-148.512 0,-297.023 0,-445.535 -28.2,0 -56.4,0 -84.6,0 -0.13,12.82 -0.07,25.578 0,38.336 -45.52,-62.641 -147.5,-60.965 -197.86,-5.371 -34.78,38 -47.2,91.711 -45.18,142.132 2.21,49.348 20.95,101.114 61.77,131.395 52.83,39.41 135.15,32.629 177.45,-19.34 -0.88,52.774 -0.21,105.613 -0.41,158.383 M 2258.57,782.242 c -27.93,-11.75 -41.42,-42.566 -44.98,-70.898 -4.63,-36.254 -0.47,-76.875 24.04,-105.676 28.73,-34.512 92.25,-29.609 112.52,11.48 19.67,40.215 19.88,89.832 2.96,130.989 -14.64,35.988 -60.43,49.347 -94.54,34.105 m 1885.75,28.403 c -0.19,52.906 -0.06,105.742 -0.06,158.648 29.61,0 59.22,0 88.83,0 0.06,-148.512 0,-297.023 0.06,-445.535 -28.26,0 -56.53,0 -84.73,0 0,12.957 0.13,25.914 0.34,38.738 -47.07,-64.859 -154.15,-61.367 -202.97,-0.469 -43.16,53.645 -50.28,130.317 -30.08,194.637 15.99,52.434 63.25,96.145 119.51,98.293 41.36,4.969 82.39,-12.891 109.1,-44.312 m -100.37,-27.192 c -26.25,-9.265 -41.29,-35.922 -46.32,-61.973 -7.52,-38.535 -4.17,-82.378 20.88,-114.203 25.51,-32.429 81.77,-33.031 107.22,-0.336 18.4,24.106 21.89,55.727 21.48,85.067 -0.94,26.183 -6.04,54.113 -23.7,74.39 -19.2,22.29 -52.9,26.723 -79.56,17.055 m 1153.53,185.84 c 29.61,0 59.22,0 88.89,0 0,-148.512 0,-297.023 0,-445.535 -29.67,0 -59.28,0 -88.89,0 0.06,148.512 0,297.023 0,445.535 m 2249.17,0 c 29.61,0 59.22,0 88.9,0 -0.07,-24.57 -0.07,-49.145 0,-73.719 -29.68,0 -59.29,-0.066 -88.9,-0.066 0,24.64 0,49.215 0,73.785 m 1026.43,0 c 29.88,0 59.76,0 89.7,0 0,-148.512 0,-297.023 0,-445.535 -28.6,0 -57.14,0 -85.6,0 0,12.89 0.07,25.781 0.4,38.535 -45.85,-63.043 -148.58,-61.23 -198.8,-4.766 -35.51,39.477 -47.47,95.203 -44.11,146.969 3.16,48.473 23.03,98.895 63.92,127.567 52.77,37.261 134.61,30.613 174.83,-22.36 -0.81,53.242 -0.2,106.418 -0.34,159.59 m -99.43,-185.574 c -27.66,-9.399 -42.84,-37.934 -47.54,-65.125 -6.31,-37.867 -3.22,-80.903 21.96,-111.653 25.91,-32.562 82.98,-32.562 107.76,1.344 16.18,21.953 20.07,50.285 20.68,76.809 -0.47,28.062 -4.5,58.543 -23.37,80.633 -18.86,22.761 -52.7,27.328 -79.49,17.992 m 377.19,102.59 c 0,27.664 0,55.324 0.07,82.984 121.59,0 243.24,0 364.9,0 -0.07,-27.66 -0.07,-55.32 0,-82.984 -44.51,0 -88.96,0.066 -133.4,-0.067 0,-120.851 -0.07,-241.637 0,-362.484 -32.77,0 -65.47,0 -98.1,0 0,120.847 -0.06,241.633 0,362.484 -44.51,0.133 -89.02,0 -133.47,0.067 m 402.84,-362.551 c 0.07,148.512 -0.07,297.023 0.07,445.535 110.98,0 222.02,0 333.01,0 -0.07,-27.66 -0.07,-55.32 0.06,-82.984 -78.35,0 -156.7,0 -234.98,0 -0.14,-31.352 -0.14,-62.707 0,-94.129 71.84,0 143.74,0.066 215.65,0 -0.13,-25.649 -0.13,-51.364 -0.07,-77.075 -71.84,-0.07 -143.74,0 -215.58,0 -0.14,-36.121 -0.14,-72.242 0,-108.363 79.96,0 159.92,0 239.95,0 -0.06,-27.664 -0.06,-55.324 0.07,-82.984 -112.73,0 -225.45,0 -338.18,0 m 378.53,445.535 c 65.46,-0.066 130.92,0.137 196.38,0 47.07,-0.199 95.21,-14.434 130.99,-45.855 43.38,-37.465 62.91,-95.473 66.13,-151.333 3.77,-63.515 -7.18,-131.996 -48.27,-182.621 -33.83,-42.5 -88.49,-63.847 -141.8,-65.058 -67.81,-1.61 -135.69,-0.199 -203.43,-0.668 0,148.512 0,297.023 0,445.535 m 98.09,-83.117 c 0,-93.121 0,-186.313 0,-279.434 45.93,2.617 94.94,-7.992 138.31,11.746 43.98,21.555 60.02,73.989 59.22,119.778 0.33,45.254 -7.26,98.226 -46.6,126.695 -44.18,30.68 -100.64,19.266 -150.93,21.215 m -4618.26,57.066 c 29.6,0.071 59.21,0.071 88.82,0 -0.06,-32.156 0,-64.316 0,-96.476 21.49,0 43.04,-0.067 64.66,-0.067 -0.07,-19.742 -0.07,-39.613 0,-59.422 -21.62,0.071 -43.11,0 -64.66,0 1.21,-58.812 -2.48,-117.761 1.75,-176.441 5.91,-28.332 42.36,-18.129 62.98,-18.664 -0.14,-23.098 -0.14,-46.262 -0.07,-69.422 -38.74,-2.285 -79.76,-7.051 -116.49,8.324 -23.36,9.801 -37.06,34.778 -36.65,59.555 -1.01,65.527 0,131.121 -0.41,196.648 -17.93,-0.066 -35.79,0.137 -53.65,0 -0.06,19.809 -0.06,39.614 0,59.422 17.86,-0.203 35.79,0.266 53.72,0.067 -0.14,32.16 0,64.32 0,96.476 m 6476.46,0.071 c 29.8,0 59.7,0 89.7,-0.071 -0.1,-32.156 0,-64.316 0,-96.476 21.4,0 42.9,-0.067 64.5,-0.067 0,-19.808 0,-39.547 0,-59.422 -21.6,0 -43.1,0 -64.5,0 -0.1,-49.882 0.1,-99.769 -0.2,-149.586 0.4,-12.687 -1.1,-26.722 5.9,-38.136 16,-14.098 39.5,-6.711 58.9,-7.25 -0.1,-23.094 -0.1,-46.258 0,-69.356 -41.1,-2.414 -86,-8.457 -123.7,11.75 -22.6,12.285 -30.7,39.074 -30.5,63.18 -0.5,63.176 0.1,126.289 -0.1,189.398 -17.8,-0.132 -35.4,0.137 -52.9,0 0,19.809 0,39.614 0,59.422 17.5,-0.136 35.1,0.199 52.9,0 -0.1,32.227 0,64.387 0,96.614 M 1864.8,803.594 c 20.61,25.582 48.54,47.332 82.38,50.554 38.34,4.098 83.46,-1.14 109.71,-32.628 24.64,-30.684 25.51,-72.176 25.38,-109.707 -0.34,-62.708 -0.14,-125.348 -0.2,-188.055 -29.61,0 -59.22,0 -88.83,0 0,60.558 0.14,121.117 0.07,181.609 -0.54,21.821 -1.48,45.86 -15.78,63.582 -17.59,20.211 -49.01,19 -72.17,10.473 -28.81,-12.082 -35.19,-46.594 -36.19,-74.457 -0.67,-60.36 0,-120.785 -0.21,-181.207 -29.6,0 -59.28,0 -88.89,0 0.07,107.621 0,215.316 0,322.941 28.2,0.067 56.4,0.067 84.6,0 0.06,-14.371 0.06,-28.738 0.13,-43.105 m 667.37,0.804 c 48.47,53.981 135.08,66.27 198.33,32.43 60.89,-33.234 83.45,-107.355 80.57,-172.883 -78.09,-0.136 -156.17,0.133 -234.25,-0.136 3.82,-23.7 7.79,-50.621 28.53,-65.996 38.47,-28.133 99.9,-16.184 123.07,26.382 25.71,0.27 51.43,0.27 77.21,-0.132 -14.77,-40.958 -41.36,-80.704 -83.72,-96.547 -68.62,-26.184 -158.72,-11.75 -202.36,51.562 -44.92,66.535 -41.69,164.895 12.62,225.32 m 61.7,-41.492 c -10.07,-12.086 -12.96,-28.062 -17.52,-42.699 48.61,-0.269 97.15,-0.336 145.69,0 -6.78,22.156 -13.09,48.273 -35.45,59.887 -29.88,14.972 -71.37,10.004 -92.72,-17.188 m 339.79,44.516 c 47.41,68.012 159.73,61.699 207.27,-2.688 32.76,-43.171 40.68,-100.441 34.57,-153.011 -6.24,-49.348 -31.76,-99.969 -78.02,-122.594 -52.77,-26.789 -122.39,-14.301 -159.45,32.828 0.27,-50.488 0,-100.977 0.13,-151.465 -29.61,-0.066 -59.28,-0.066 -88.89,0 0.07,145.422 0,290.781 0.07,436.207 28.2,0.067 56.39,0.067 84.66,0 -0.07,-13.027 -0.2,-26.121 -0.34,-39.277 m 49.42,-24.442 c -28.54,-11.21 -42.23,-42.363 -45.92,-70.964 -4.03,-35.45 -2.62,-75.266 20.2,-104.606 28.68,-36.722 95.48,-32.156 116.56,10.41 19.87,40.821 19.67,91.778 -0.13,132.598 -15.51,33.035 -57.81,46.395 -90.71,32.562 m 258.15,17.188 c 57.34,69.492 178.52,76.07 238.75,7.051 34.78,-38.672 45.12,-92.653 43.5,-143.274 -78.01,-0.203 -156.03,0.266 -233.98,-0.269 4.1,-23.297 7.79,-49.953 27.93,-65.395 38.48,-28.535 100.58,-17.187 123.61,25.914 25.78,0.27 51.5,0.27 77.34,-0.066 -14.5,-39.613 -39.41,-78.484 -79.96,-95.07 -69.42,-28.668 -162.34,-14.098 -206.65,50.757 -43.38,65.059 -40.89,159.661 9.46,220.352 m 68.35,-33.902 c -12.09,-12.422 -15.58,-29.946 -20.54,-45.926 48.6,-0.602 97.21,-0.469 145.89,-0.067 -6.92,21.954 -13.16,48.141 -35.38,59.821 -28.6,14.234 -67.88,10.543 -89.97,-13.828 m 336.5,37.195 c 21.22,23.832 47.07,46.461 80.1,50.219 41.49,5.504 92.25,-0.942 117.63,-38.27 23.9,-36.457 20.68,-82.246 20.88,-123.871 -0.14,-55.93 0,-111.855 0,-167.781 -29.68,0 -59.28,0 -88.89,0 -0.21,62.437 0.47,124.879 -0.21,187.316 -1.14,23.367 -3.42,51.563 -24.64,65.864 -35.11,20.613 -90.03,3.089 -95.54,-40.684 -8.66,-70.297 -1.67,-141.734 -3.89,-212.496 -29.94,0 -59.82,0 -89.77,0 0.07,107.621 0,215.316 0.07,322.941 28.2,0.067 56.4,0.067 84.66,0 -0.13,-14.371 -0.19,-28.804 -0.4,-43.238 m 673.81,6.512 c 46.33,46.593 121.8,57.605 181.55,32.562 68.28,-29.207 95.61,-109.101 91.92,-178.59 -78.09,-0.203 -156.17,0.332 -234.19,-0.269 4.1,-22.895 7.19,-49.012 26.86,-64.524 38.13,-29.875 101.04,-18.195 124.47,24.977 25.79,0.336 51.57,0.336 77.35,0.066 -14.37,-40.082 -40.01,-78.953 -80.84,-95.539 -68.48,-27.593 -158.98,-13.965 -203.9,48.61 -47.8,68.55 -43.17,172.617 16.78,232.707 m 61.17,-41.426 c -13.49,-12.555 -17.39,-31.219 -22.36,-48.141 48.61,-0.668 97.22,-0.601 145.83,-0.066 -6.92,21.219 -12.56,45.926 -33.1,58.344 -27.93,15.711 -67,12.421 -90.37,-10.137 m 335.03,33.301 c 20.07,27.461 49.48,49.414 84.19,52.504 39.81,4.027 87.55,-2.551 112.26,-37.801 23.56,-34.508 21.48,-78.418 21.41,-118.367 -0.2,-58.141 -0.06,-116.286 -0.06,-174.426 -29.68,0 -59.29,0 -88.89,0 0,60.492 0,121.051 0.06,181.543 -0.54,22.894 -1.47,48.945 -18.26,66.469 -18.13,16.988 -46.66,15.71 -68.62,8.058 -29.2,-11.551 -36.39,-46.394 -37.19,-74.461 -0.88,-60.558 0,-121.051 -0.27,-181.609 -29.68,0 -59.29,0 -88.83,0 0,107.691 -0.07,215.316 0,322.941 28.2,0 56.47,0.067 84.74,0.067 -0.14,-14.973 -0.34,-29.946 -0.54,-44.918 m 1201.32,46.664 c 54.05,13.828 116.56,8.258 161.54,-27.125 35.92,-27.664 55.33,-72.379 58.48,-116.957 5.51,-57.071 -12.22,-120.25 -59.62,-155.965 -75.13,-55.594 -201.62,-42.637 -250.1,42.297 -27.32,48.472 -29.94,108.898 -12.68,161.203 15.1,46.726 54.85,84.125 102.38,96.547 m 26.26,-64.926 c -29.81,-9.938 -44.72,-41.828 -48.21,-71.035 -3.96,-33.164 -2.69,-69.488 15.24,-98.762 24.64,-40.484 91.78,-41.691 118.84,-3.289 16.45,23.434 20.01,53.309 19.53,81.238 -1.07,26.52 -6.57,54.922 -24.97,75.2 -19.94,21.75 -53.51,26.046 -80.43,16.648 m 311.66,8.797 c 24.64,42.566 73.12,70.43 122.93,61.699 -0.06,-27.863 -0.2,-55.727 0.07,-83.656 -30.21,2.484 -64.99,5.574 -89.23,-16.449 -26.99,-23.567 -30.82,-62.172 -30.21,-95.809 0.2,-44.781 0.06,-89.629 0.13,-134.41 -29.68,0 -59.28,0 -88.82,0 0,107.621 -0.07,215.316 0,322.941 28.13,0 56.26,0.067 84.46,0 -0.2,-18.062 0.73,-36.191 0.67,-54.316 m 192.76,37.597 c 34.24,26.25 81.57,31.352 122.32,19.469 23.3,-6.445 39.68,-25.109 54.72,-42.836 -0.13,13.364 -0.13,26.789 -0.06,40.086 28.2,0.067 56.39,0.067 84.59,0 -0.13,-103.129 0.41,-206.32 -0.2,-309.515 0.47,-48.743 -25.98,-98.696 -72.31,-117.696 -58.01,-23.5 -128.1,-25.511 -184.23,4.364 -31.29,15.843 -49.48,48.074 -54.45,81.91 29.41,0.402 58.82,0.402 88.29,0.066 15.78,-50.89 91.98,-59.015 123.13,-19 19.61,26.723 14.44,61.637 15.38,92.652 -43.91,-55.792 -133.61,-61.093 -186.65,-15.91 -37.6,33.235 -49.62,86.004 -49.08,134.278 0.27,49.347 18.26,101.449 58.55,132.132 m 73.98,-47.468 c -25.24,-10.946 -38.33,-38.403 -41.82,-64.387 -3.9,-31.957 -0.74,-67.34 19.13,-93.93 25.11,-32.898 80.77,-30.211 105.41,2.016 21.22,26.855 23.3,63.715 17.32,96.211 -4.09,22.492 -14.9,45.656 -35.65,57.137 -19.54,10.406 -44.04,11.679 -64.39,2.953 m 267.35,41.828 c 47.21,34.777 110.38,34.512 166.11,27.191 37.06,-5.101 79.15,-25.781 86.67,-66.133 5.11,-37.73 1.15,-76.07 2.35,-114.07 1.28,-49.281 -5.17,-99.902 10.01,-147.707 -29.95,0.137 -59.89,0.137 -89.83,0.27 -1.75,9.734 -3.63,19.402 -5.64,29.004 -40.15,-35.25 -97.96,-45.051 -148.92,-32.36 -29.61,7.449 -56.33,29.406 -64.46,59.485 -9.93,36.253 -4.63,82.043 28.34,105.003 47.47,32.832 108.63,22.157 161.13,39.95 29.41,8.929 25.45,55.457 -1.07,65.261 -23.36,7.856 -51.36,8.793 -73.18,-3.894 -14.23,-8.125 -17.12,-25.379 -22.43,-39.41 -29.54,0.066 -59.01,0 -88.49,0.265 4.23,29.141 14.44,59.285 39.41,77.145 m 63.05,-171.141 c -28.54,-12.351 -30.48,-60.289 -0.74,-72.308 29.41,-10.27 68.68,-8.121 89.63,17.726 17.46,22.895 13.5,53.375 14.84,80.297 -33.3,-14.031 -71.04,-10.605 -103.73,-25.715 m 331.87,150.461 c 20.75,24.305 47.2,46.125 80.03,50.086 37.2,4.567 80.23,0.606 108.16,-27.125 24.77,-25.578 28.94,-63.242 30.08,-97.148 0.74,-68.551 0.07,-137.168 0.34,-205.715 -29.95,0 -59.9,0 -89.7,0 -0.14,62.707 0.2,125.414 -0.07,188.125 -0.47,24.504 -4.23,54.515 -28.2,67.34 -21.82,9.332 -49.28,7.922 -69.09,-5.371 -23.29,-17.391 -25.91,-49.079 -26.85,-75.801 -0.47,-58.078 0,-116.153 -0.13,-174.293 -29.61,0 -59.29,0 -88.9,0 0.07,107.691 0,215.316 0.07,323.008 28.2,0 56.4,0 84.73,-0.067 -0.2,-14.301 -0.34,-28.672 -0.47,-43.039 m 749.41,3.762 c 59.35,62.84 174.16,66.133 232.17,-0.27 34.58,-38.738 44.92,-92.586 43.71,-143.207 -78.15,-0.336 -156.24,0.469 -234.32,-0.406 4.03,-23.363 7.72,-49.949 28.07,-65.324 38.53,-28.738 100.23,-16.719 123.67,25.98 25.65,0.27 51.29,0.27 77,-0.132 -14.16,-39.477 -39.21,-77.883 -79.22,-94.735 -69.49,-28.937 -162.54,-14.57 -207.06,50.289 -45.32,67.676 -41.09,168.051 15.98,227.805 m 61.23,-41.426 c -11.88,-12.422 -15.1,-29.808 -20.14,-45.59 48.54,-0.738 97.09,-0.402 145.7,-0.199 -6.52,22.223 -13.1,48.004 -35.19,59.887 -28.8,14.301 -68.21,10.406 -90.37,-14.098 m 2171.42,44.984 c 61.3,60.426 175.9,61.231 231.6,-7.183 32.5,-38.606 41.9,-90.641 40.9,-139.852 -78.1,-0.203 -156.1,0.266 -234.2,-0.269 3.9,-23.434 7.7,-50.153 28.2,-65.528 38.3,-28.468 100.2,-16.718 123.3,26.047 25.7,0.27 51.4,0.27 77.2,-0.066 -14.3,-39.746 -39.4,-78.551 -80,-95.07 -68,-27.93 -158.2,-14.903 -203.6,46.796 -49.3,68.821 -44.6,174.833 16.6,235.125 m 58.4,-44.582 c -12.3,-12.421 -15.7,-30.011 -20.7,-46.058 48.6,-0.602 97.2,-0.402 145.8,-0.133 -6.8,22.223 -13.2,48.34 -35.5,59.953 -28.6,14.102 -67.6,10.41 -89.6,-13.762 m 587.4,57.071 c 62.1,46.527 161.4,44.043 213.9,-16.114 34.9,-38.675 45.4,-92.722 43.9,-143.41 -78,-0.203 -156.1,0.266 -234.1,-0.269 3.9,-23.367 7.7,-49.953 28,-65.461 38.5,-28.469 100.5,-16.988 123.6,25.98 25.6,0.27 51.3,0.27 77.1,-0.066 -14.6,-41.156 -41.5,-81.035 -83.9,-96.816 -64.7,-24.168 -147.5,-13.426 -193.9,41.226 -59.8,72.914 -51.4,196.918 25.4,254.93 m 43.5,-57.406 c -12.1,-12.352 -15.3,-29.946 -20.3,-45.79 48.5,-0.468 97.1,-0.335 145.7,-0.066 -6.8,22.223 -13,48.473 -35.5,60.023 -28.7,14.165 -67.9,10.137 -89.9,-14.167 m 336.9,37.464 c 20.8,24.239 47.1,46.125 80,50.153 37.1,4.566 80.2,0.804 108.2,-26.922 24.5,-25.11 29.2,-62.106 30.2,-95.61 0.4,-69.085 0,-138.238 0.2,-207.39 -29.7,0 -59.4,0 -88.9,0 -0.3,62.57 0.6,125.144 -0.4,187.652 -1,24.574 -4.2,55.391 -28.8,67.945 -27,11.282 -65.1,7.118 -81.7,-19.468 -13.7,-22.492 -13.5,-49.821 -14.3,-75.266 -0.1,-53.644 0.1,-107.219 0,-160.863 -29.6,0 -59.2,0 -88.9,0 0.1,107.621 0,215.316 0.1,322.941 28.1,0.067 56.4,0.067 84.7,0 -0.3,-14.371 -0.3,-28.738 -0.4,-43.172 m -9558.49,43.036 c 29.61,0.468 59.22,0.066 88.89,-0.067 -0.13,-107.558 -0.06,-215.117 -0.06,-322.738 -29.61,0 -59.29,0 -88.9,0 0.07,107.621 0,215.246 0.07,322.805 m 3671.46,0.136 c 31.82,0 63.72,0.067 95.61,0.067 24.5,-72.914 47.06,-146.567 73.38,-218.875 24.1,72.711 46.73,145.894 70.23,218.808 30.75,0.067 61.64,0.067 92.45,0 -44.58,-120.383 -89.29,-240.695 -133.88,-361.011 -9.4,-25.848 -24.7,-51.833 -50.75,-63.583 -36.26,-16.582 -77.35,-10.675 -115.82,-8.324 0,24.574 0,49.145 0.07,73.719 21.15,-0.871 43.37,-6.914 64.05,0.066 21.55,9.536 26.05,37.399 17.73,57.407 -37.53,100.64 -75.54,201.082 -113.07,301.726 m 2141.08,0 c 29.61,0.067 59.22,0.067 88.9,0 0,-107.625 -0.07,-215.32 0,-322.941 -29.68,0 -59.29,0 -88.9,0 0.07,107.621 0,215.316 0,322.941 m 138.51,0 c 90.57,0.067 181.14,0.067 271.78,0 -0.06,-22.426 -0.06,-44.851 0.07,-67.277 -54.92,-62.774 -111.65,-123.938 -165.37,-187.719 59.02,-0.269 118.04,0 177.05,-0.137 -0.06,-22.558 -0.06,-45.183 0,-67.808 -98.69,0 -197.39,0 -296.08,0 -0.07,22.625 -0.07,45.25 -0.07,67.875 55.59,62.64 111.25,125.285 166.84,187.992 -51.43,0.203 -102.86,0.066 -154.22,0.066 -0.07,22.36 -0.07,44.715 0,67.008 m 2848.84,-0.07 c 31.2,0.137 62.4,0.137 93.7,0.07 22.8,-72.847 44.4,-146.097 68.1,-218.676 23.7,72.579 45.3,145.829 68,218.676 29.7,0 59.3,0.067 88.9,0 -36.6,-107.625 -72.8,-215.32 -109.4,-322.941 -33,-0.07 -65.9,0 -98.8,0 -36.7,107.691 -73.7,215.246 -110.5,322.871 m -9266.51,-64.52 c 104.81,0.067 209.68,0 314.55,0 0,-22.558 0,-45.183 0,-67.879 -104.87,0 -209.68,0.067 -314.55,0 -0.07,22.625 0,45.254 0,67.879 m 0,-133.472 c 104.87,0.066 209.68,0.066 314.55,0 0,-22.293 0,-44.649 0,-67.008 -104.87,0 -209.68,0 -314.55,0 0,22.359 0,44.715 0,67.008" /></g></g></svg>